<svg width="57" height="59" viewBox="0 0 57 59" fill="none" xmlns="http://www.w3.org/2000/svg">
<path d="M20.6397 51.6248C22.1086 51.7554 23.8008 51.718 25.2843 51.7351C28.963 51.7778 32.6443 51.7105 36.3243 51.7342L36.378 51.8318L36.2716 52.1619C35.9934 53.2958 35.7521 54.1191 35.0343 55.0515L34.5743 55.5262C32.3746 57.7616 31.5792 57.9875 27.962 58.1209C27.7916 58.1272 27.5164 58.1346 27.2198 58.1248C27.022 58.1182 26.8145 58.1039 26.6222 58.0769C26.3337 58.0364 26.0787 57.9668 25.9415 57.8504C25.9068 57.8207 25.8131 57.7121 25.7823 57.6687C24.7894 56.9586 24.2668 57.0636 23.1925 56.076C23.0247 55.9055 22.6833 55.6261 22.4923 55.4588C21.6862 55.1209 21.0436 52.563 20.6397 51.6248ZM28.1007 0.00173647C29.409 0.0593534 31.0229 0.94503 31.2501 2.29178C31.2985 2.57857 31.4326 2.92438 31.6427 3.12088C32.3914 3.43024 33.5596 3.8176 33.8663 4.59158C33.8887 4.64802 33.9057 4.70058 33.919 4.74978C33.9726 4.94678 33.9595 5.09411 33.922 5.25857C33.8938 5.38204 33.8522 5.51535 33.8146 5.68631C33.8245 5.79822 33.8113 6.0542 33.9122 6.10428C35.2187 6.74907 36.6175 7.22203 37.9308 7.85623C40.1594 8.93252 42.1287 10.3653 43.8146 12.1804C44.8617 13.3079 46.0452 14.5697 46.7911 15.9324C48.0833 18.3182 48.1159 21.0457 48.3644 23.6756C48.5152 25.2724 48.8006 26.8977 48.9669 28.4685C49.226 30.9163 49.5549 32.5759 50.8624 34.7019C52.0082 36.5651 53.0659 38.5325 54.4064 40.2898C55.0923 41.2381 56.0143 41.8691 56.5157 42.9295C56.7883 43.5061 57.0227 45.1899 56.3478 45.5242V45.5252L56.0245 45.7371L55.964 45.7771C55.9054 45.8754 55.8434 45.9631 55.7794 46.0437C55.5228 46.3671 55.2284 46.5778 54.9464 46.907C54.8758 46.9894 54.8066 47.0796 54.7384 47.1804C54.6701 47.2813 54.6026 47.3928 54.5382 47.5193C54.4739 47.6454 54.4125 47.7863 54.3536 47.9451C47.6681 48.0129 40.9542 48.2398 34.2657 48.2254C33.4643 48.2236 32.6624 48.2187 31.8614 48.2097C30.2589 48.1917 28.657 48.1605 27.0558 48.1228C23.0532 48.0287 19.0534 47.8927 15.0509 47.8142L6.86143 47.6267C6.56151 47.6206 5.87756 47.6281 5.21201 47.6248C4.54711 47.6215 3.90029 47.6076 3.67295 47.5574L2.23643 47.5447C2.2201 47.2766 2.20764 46.9962 2.18955 46.7293C2.14619 46.089 1.97035 46.0943 1.44248 46.0154C0.895575 45.9073 0.69103 45.7177 0.359476 45.3054C-0.948116 43.7542 1.6723 41.9049 2.47373 40.7156C2.91609 40.0591 3.42456 39.4099 3.81748 38.7049C5.15295 36.3088 6.50565 33.6879 7.21299 31.0301C7.66522 28.6911 7.97319 26.1758 8.09971 23.7976C8.26024 20.7802 8.63264 18.3209 10.1017 15.5945C11.6915 12.6542 14.0894 10.2196 16.9601 8.5115C19.4077 7.05513 21.8413 6.10582 24.5343 5.25076C24.4097 4.35845 24.369 3.15875 24.4015 2.26834C25.029 1.14691 26.8776 -0.0519071 28.1007 0.00173647ZM30.7716 32.6472C29.2827 32.4246 26.906 32.4644 25.3683 32.4783C24.6102 33.499 23.7886 36.648 24.0528 37.9422C24.6262 40.7505 28.5952 41.9142 30.7599 40.1414C31.3555 39.5469 32.2923 38.6458 32.6573 37.9031C33.4702 36.2489 31.7475 33.8492 30.7716 32.6472ZM31.4347 13.0359C29.6996 12.4006 26.2377 11.8828 24.6866 13.0984C24.509 15.3276 24.5847 17.5613 24.545 19.7937C24.5003 22.3135 24.5869 24.8316 24.5968 27.3474L24.671 27.5242L24.7696 28.5652C25.8681 29.6128 26.8048 29.5503 28.2325 29.5262C28.4354 29.5227 28.6286 29.5167 28.8116 29.5066C29.1775 29.4864 29.5047 29.4474 29.796 29.3679C30.2329 29.2487 30.5903 29.0386 30.878 28.6638C31.0697 28.4141 31.2307 28.091 31.3644 27.6736C31.4194 27.4414 31.5519 27.2946 31.5997 26.9158C31.736 25.8352 31.6934 24.6868 31.67 23.5994L31.5685 19.2234C31.5268 17.2101 31.5575 15.0349 31.4347 13.0359Z" fill="#77818A"/>
</svg>
