<svg width="68" height="67" viewBox="0 0 68 67" fill="none" xmlns="http://www.w3.org/2000/svg">
<path d="M38.8289 0.164143C39.4322 0.125975 41.4927 -0.0639237 41.8647 0.0221517C41.8074 0.377692 41.8352 0.542004 42.0664 0.826467C43.4191 2.49072 44.9931 3.93708 46.417 5.55181C49.859 9.53313 53.2405 13.566 56.5605 17.6489C59.3507 21.033 62.9372 25.1275 65.1077 28.9804C66.0268 30.611 67.8233 36.2355 67.8893 38.0369C68.0973 39.0565 67.9596 40.5301 67.8992 41.5498C67.6799 45.2369 66.5066 49.1131 64.41 52.1899C63.4766 53.5604 60.4168 57.1879 59.1008 58.1182C57.819 59.6845 53.3516 62.5986 51.5724 63.6243C48.7271 65.288 45.0912 66.4643 41.8229 66.8406C41.4579 66.8827 40.432 66.9867 40.0906 66.9464C37.6122 67.0504 33.7731 67.0236 31.3261 66.6802C30.9762 66.6598 30.626 66.6216 30.2783 66.5771C26.4885 66.0917 22.6741 65.9074 18.8843 65.4179C16.478 65.2883 11.3932 64.8385 9.66475 63.3086C9.59527 63.2613 9.52819 63.211 9.46673 63.1535C8.59129 62.334 7.54451 60.9269 7.52868 59.6912C7.51406 58.5504 8.22121 57.4246 9.00551 56.6398C9.85895 55.7858 10.9646 54.9572 12.1607 54.6694C13.6927 54.301 19.6799 55.0618 21.5175 55.2166C22.8983 55.3353 24.284 55.3885 25.6699 55.3758C24.5742 54.1689 23.7149 52.9877 22.7279 51.7121C22.2282 51.0663 21.5023 50.2724 20.9557 49.6374C20.1356 48.3495 18.6861 46.7054 17.6544 45.5663C17.2791 45.1603 16.6568 44.3981 16.3307 43.9612C16.064 43.7143 15.1714 42.6057 14.9013 42.2851C13.8255 41.0111 12.7563 39.7316 11.6935 38.4467C10.9908 37.5911 10.2787 36.7432 9.55729 35.9032C9.00033 35.262 8.29006 34.4978 7.79052 33.8308C7.37522 33.4251 6.94801 32.7915 6.55117 32.3386C5.28429 30.8923 4.05347 29.4011 2.86203 27.8902C1.77366 26.51 -0.0289607 24.6397 0.000353115 22.8038C0.0444303 20.8227 2.20152 18.877 4.16362 18.882C5.56586 18.8855 7.05511 20.5031 7.96973 21.4446C9.64133 23.1652 11.1101 25.1348 12.6295 26.99C14.9214 29.7652 17.2398 32.5185 19.5843 35.2497C21.0078 36.8862 22.9869 39.8051 25.2773 40.2559C26.1462 39.7763 27.1637 38.8506 27.555 37.9228C27.2926 36.9776 27.0449 36.6408 26.5326 35.8027C26.3691 35.6514 25.8546 34.9456 25.6897 34.7389C24.9433 33.8036 24.2444 32.8061 23.4739 31.8909L11.8164 17.9878C11.6001 17.8185 10.7479 16.6613 10.5136 16.3654C9.35501 14.9542 8.07081 13.7047 7.55501 11.9081C7.08187 10.2602 9.14229 7.86251 10.6714 7.53759C12.0247 7.07463 13.0635 7.73642 14.0601 8.55356C15.7705 9.74362 18.1534 12.8635 19.5486 14.5914C20.5294 15.7903 21.5221 16.9795 22.5265 18.1588C23.7214 19.5785 24.9135 20.9996 26.1393 22.3931C26.3561 22.6395 26.5635 22.8904 26.7559 23.1565C27.42 23.9905 28.2764 25.1138 28.9953 25.8667C30.5414 27.6513 32.8974 30.7258 35.0441 31.6719C36.283 31.8454 36.5347 31.4837 37.2893 30.5649C37.8347 29.3219 37.7196 28.6128 36.9414 27.5104C36.4442 26.806 35.8992 26.1228 35.363 25.4484C34.8061 24.8247 34.0487 23.9713 33.5708 23.2945C33.4654 23.2291 32.1988 21.5643 31.9992 21.327L25.0326 13.0759C24.0948 11.9563 22.3931 10.0176 21.5921 8.8724C21.0674 8.10855 20.6775 7.26109 20.4392 6.36655C20.6626 5.26421 21.2759 4.27824 22.1673 3.58796C22.9107 3.01095 24.1362 2.36364 25.0717 2.52322C27.6555 2.964 30.868 7.41249 32.4101 9.4035C32.9118 10.0342 33.4666 10.7785 33.9748 11.3855C34.3796 11.6982 36.2612 13.9216 36.6098 14.3467C38.3851 16.5113 40.1999 18.6434 42.0532 20.7421C43.2687 22.0916 44.035 23.2776 45.867 23.7626C50.6813 22.0102 45.4816 17.5626 44.0347 15.309C42.9187 13.5706 40.9465 11.8336 39.9669 10.1521C39.3386 9.2849 38.3659 8.25069 37.8181 7.40817C37.2439 6.97709 36.5169 5.22867 36.1683 4.58148L36.1846 4.54718C37.1714 2.51867 38.566 2.47428 39.7839 0.283679C39.4648 0.250155 39.1464 0.210298 38.8289 0.164143Z" fill="#619854"/>
</svg>
