<svg width="57" height="33" viewBox="0 0 57 33" fill="none" xmlns="http://www.w3.org/2000/svg">
<path d="M35.6123 19.4325C36.3003 19.4843 37.3007 19.5617 37.9453 19.749C41.2481 20.7086 47.4121 24.5607 49.9736 26.8974C51.0555 25.394 51.7597 21.4442 53.5811 20.4384L53.8193 21.0048C52.9294 22.4436 52.2793 26.0876 51.1787 27.0478C51.3648 27.267 51.8901 27.8602 52.0146 28.0693C52.2863 28.4497 52.724 28.9987 52.8506 29.4228C53.145 30.1696 53.3123 30.2881 53.7734 30.9316C51.9636 30.5396 51.666 29.0707 50.0312 27.7753L49.9043 27.746C45.8749 25.3846 42.4672 21.8611 37.8125 20.5126C35.1872 19.7521 32.3215 24.6243 31.665 27.0087L31.6084 27.2314L31.6221 27.3935C31.8239 29.0775 33.9553 30.9554 35.1113 32.3124C33.4053 31.3606 32.2476 30.4277 30.874 29.0243C30.615 28.7597 29.5699 27.7702 29.2305 27.7616C27.4997 27.6873 26.1413 26.1358 25.001 24.9853C24.4102 24.3926 22.4352 23.1876 21.6484 22.6913L20.4072 22.1093C19.1863 21.5347 18.0009 21.0236 16.6201 20.957C15.0906 21.4299 14.2465 21.5668 13.0361 22.747C12.1241 23.8173 11.34 24.877 10.8369 26.1913L10.7402 26.4579L10.8027 26.7558C10.9531 27.4059 11.1288 27.766 11.4336 28.4491L11.9951 29.1894C12.662 30.0624 13.5361 31.2379 13.6357 31.8515L13.5 31.9589C12.5553 31.6433 12.4341 30.8021 11.4727 30.2499C10.5604 30.2073 9.79491 29.7354 9.15137 29.122C6.59897 27.8381 1.27538 24.7139 0 22.245L0.192383 21.5156C0.677876 21.5336 1.00301 21.553 1.48828 21.496C1.81654 21.8833 2.05955 22.2013 2.4668 22.5087C2.85838 22.2168 2.92148 22.1882 3.38574 22.0322C4.37411 22.0241 10.7946 22.7143 11.4629 23.0566L11.8379 22.6005L12.0811 22.4853C13.6764 20.7793 15.337 20.2825 17.6045 20.1679C19.775 20.6274 20.7968 21.2867 22.7295 22.4277C23.8342 22.9768 29.3306 26.3363 29.9707 26.3212L30.1787 26.1484C30.7392 24.7006 34.2223 20.3724 35.6123 19.4325ZM40.2256 0.123951C45.5863 0.261031 51.596 -0.332312 56.876 0.290943C56.9292 0.501535 57.0073 0.695322 56.9531 0.897388C55.7953 1.53365 54.9602 1.64325 53.6592 1.7802C48.1114 2.3644 42.5444 2.38667 36.9746 2.34563C31.2477 2.30338 25.5135 2.775 19.7812 2.54583C19.3345 2.52794 18.918 2.52286 18.4707 2.46868C16.9281 2.42804 15.6064 2.40805 14.0605 2.46086C12.6478 3.08196 2.71813 2.79987 0.652344 2.63176L0.660156 0.562427C5.16872 0.723085 9.89473 0.342224 14.3604 0.414967C21.1995 0.52631 27.9579 0.545171 34.8008 0.415943C36.5565 0.431062 38.4842 0.0792517 40.2256 0.123951Z" fill="#3583B2"/>
</svg>
