<svg width="55" height="48" viewBox="0 0 55 48" fill="none" xmlns="http://www.w3.org/2000/svg">
<path d="M29.8008 0C29.8485 2.75072 29.6679 5.54506 29.707 8.32617C29.7136 11.0331 29.6303 14.8256 29.7979 17.4766L29.8369 17.9551L29.8213 18.4414L29.8105 25.542L29.8164 26.2744C29.8124 26.9956 29.7854 27.8513 29.8086 28.5605C29.8558 29.4848 29.8541 30.3087 29.8447 31.2344C32.4122 31.4374 34.8644 31.5049 37.416 31.0605C37.7323 31.0055 37.8936 30.9858 38.1309 31.0293L38.4023 31.0947L38.8252 31.127C41.1035 31.2632 45.7579 31.0124 47.6689 30.6953L47.7637 30.6123C48.6876 29.7541 47.7644 28.9086 48.4502 28.1543C48.6103 28.1532 50.0964 28.8074 50.417 28.9346C50.6334 29.3765 50.501 30.0909 50.4941 30.6914C51.5945 30.5619 53.2761 30.4313 54.2217 31.0527L54.3975 31.3369C54.2195 32.0541 53.4428 32.4742 52.7881 32.7822C52.3694 33.1171 51.4363 33.7562 51.1191 34.0381C50.7309 34.4574 50.1073 35.1431 49.5186 35.2383L49.3369 35.1914V35.1904C48.595 35.0642 48.4825 35.8312 47.6738 35.3477C47.4979 34.7526 48.0609 34.3358 47.9219 33.7578C47.3087 33.3123 45.06 33.3489 44.1885 33.3184C42.7652 33.3794 41.935 33.4 40.4961 33.2891L39.0449 33.4189C38.1157 33.8755 36.7206 33.2023 35.46 33.4912C34.6027 33.4624 34.3675 33.4934 33.5332 33.7051C33.1306 33.6494 32.7037 33.7059 32.2939 33.7373C31.658 33.7383 30.2459 33.6088 29.6348 33.4814C29.4877 33.9856 29.5609 34.8071 29.6074 35.3496C29.9782 36.036 30.9056 36.781 31.5176 37.3447C33.1488 38.8476 35.8097 42.6366 35.6357 45.0117C35.5475 45.1708 35.5391 45.2403 35.3984 45.3271C34.2688 45.5245 33.0415 45.6798 31.9355 45.3418C32.1258 44.5609 31.696 44.5083 31.3916 43.9688C30.1578 41.7816 28.3862 41.8998 26.2236 42.1113C24.9275 43.8014 25.4534 45.0415 23.8213 47.333C22.5024 47.6985 21.8852 47.9431 20.9512 46.7598C18.4519 43.5926 22.2599 41.3811 22.6436 37.874C23.5654 37.4999 23.9123 37.3475 24.748 36.8145C24.9001 35.0929 24.8696 33.0245 24.8818 31.2656C24.8941 31.2124 24.905 31.1356 24.915 31.0381C24.905 31.1354 24.8941 31.2124 24.8818 31.2656L24.7461 31.2695C23.5808 31.2999 22.5399 31.1391 21.2051 31.2256C20.1171 31.2962 18.8308 31.5372 17.7773 31.6162L17.3418 31.6387C16.5637 33.3348 14.1297 32.5521 12.71 32.8359C11.7407 33.0295 8.06273 33.0138 7.43848 33.2734C7.36156 33.5912 7.32794 33.7531 7.29688 34.0781C6.99746 34.8127 6.88908 35.4999 6.10449 35.749C5.27495 35.6507 4.71194 34.9113 3.99219 34.6973C1.25937 33.8848 0.322745 35.2343 0 31.6914C2.06079 29.9882 4.46624 29.8332 6.6416 27.5244L6.87109 29.2568C6.91933 29.6238 6.97521 30.7503 7.12109 30.9238C9.91423 31.0151 14.6233 31.3464 17.3125 31.1348L17.3789 31.1113C18.2195 30.8729 23.6749 30.7491 24.8145 30.6592C24.8787 28.9117 24.8409 26.9989 24.8359 25.2373C23.7142 25.1791 21.2964 25.2434 20.3086 24.9473C20.816 24.7437 24.036 24.6445 24.8301 24.6113C24.8439 23.755 24.8407 23.0587 24.9697 22.209C25.0226 21.434 24.989 20.192 24.9932 19.3809C25.0414 16.3931 25.1132 10.7293 24.876 7.88574C24.915 6.51881 24.3948 0.951004 24.8203 0.302734C26.8646 0.451047 27.78 0.282357 29.8008 0Z" fill="#3583B2"/>
</svg>
