<svg width="68" height="52" viewBox="0 0 68 52" fill="none" xmlns="http://www.w3.org/2000/svg">
<path d="M67.4903 15.2987C67.4619 15.4686 67.5245 16.6194 67.5332 16.8544C67.5627 17.6828 67.5761 18.5117 67.5733 19.3407C67.569 23.4763 67.6585 27.9793 67.7217 32.1366C67.7587 34.0782 67.7828 36.0199 67.795 37.9618C67.811 40.1519 67.9348 42.9311 67.3233 45.0155C67.1248 45.6398 66.7046 46.1953 66.3731 46.7352C64.9481 49.0566 62.78 50.3076 60.0547 50.4657C57.185 50.6321 54.2546 50.6778 51.3516 50.7587L32.4502 51.1601C30.5784 51.1987 28.7847 51.3915 26.9356 51.4667C22.3225 51.6542 17.6842 51.6003 13.0694 51.6229C11.4724 51.6308 6.30997 51.6752 4.9932 51.2206C4.69558 50.8408 4.52576 50.3864 4.25004 49.9921C3.66127 49.1844 2.83843 48.6178 2.18949 47.8446C1.04629 46.4825 0.715516 45.3875 0.596715 43.6347C0.44818 41.443 0.367088 39.2541 0.30277 37.0526L0.0723013 29.1142C-0.0177773 27.6014 0.00499048 25.88 0.00101227 24.3583C-0.00570536 21.4609 0.0210144 18.5636 0.0810904 15.6669C1.30697 16.6215 2.48334 17.5486 3.7305 18.5097C8.17587 21.9352 12.8424 25.1081 17.3946 28.3866C21.1101 31.0627 24.6173 34.0154 28.461 36.5116C29.624 37.1814 30.8831 37.6694 32.1192 38.1698C35.7185 39.6267 40.0345 36.1529 42.793 34.2245C46.601 31.5624 50.2499 28.6547 53.9141 25.827L63.3018 18.6688C64.36 17.8576 66.2672 16.4774 67.3799 15.6054C67.4235 15.4834 67.4607 15.3814 67.4903 15.2987ZM28.9317 0.116105C36.2134 0.0206424 43.4007 -0.0451872 50.6827 0.0379802C53.2831 0.0432797 55.8834 0.0697406 58.4834 0.117082C60.1204 0.13185 61.9015 -0.00252736 63.5088 0.32216C64.5924 0.541116 65.5783 1.75623 66.1612 2.6454C67.1185 4.10589 67.7487 5.99988 67.3662 7.75185C66.7408 10.6168 52.016 21.4424 49.0352 23.7313L42.6905 28.5399C40.9248 29.8887 39.122 31.2817 37.2823 32.495C36.3027 33.1411 35.5906 33.717 34.4297 33.2675C34.1833 33.1721 34.0153 33.158 33.7618 33.2206C33.889 33.7518 34.516 34.0307 34.5303 34.5145L34.3604 34.5634C33.9794 34.5141 33.173 33.6223 32.8731 33.3124C32.0567 32.6479 30.9525 32.2697 30.1797 31.6561C28.143 30.0391 25.7623 28.7041 23.7237 27.1268C16.4556 21.4858 8.4097 16.7529 1.71586 10.4081C1.10872 9.83263 0.319983 8.93875 0.215856 7.97548C-0.0744406 5.28626 1.06828 2.36959 3.31742 0.803605C3.87274 0.417182 6.02478 0.472881 6.75492 0.380754C14.1385 0.0612964 21.5457 0.212979 28.9317 0.116105Z" fill="#B5B5B3"/>
</svg>
