<svg width="160" height="160" viewBox="0 0 160 160" fill="none" xmlns="http://www.w3.org/2000/svg">
<path d="M82.7791 101.397C84.9169 97.4191 87.078 91.667 92.9373 94.707C94.8421 95.6954 96.1568 97.0172 97.8591 98.2939C98.8273 99.0203 100.076 99.7275 101.132 100.35L101.795 100.579C104.899 99.8351 105.006 95.0991 107.214 95.248L107.442 95.4463C107.476 96.0827 106.934 96.7804 106.787 97.5166C106.405 99.4288 106.17 101.177 106.537 103.109C106.631 103.608 106.951 104.366 106.996 104.619C107.062 104.991 107.115 105.266 107.133 105.647C106.897 105.874 107.009 105.823 106.703 105.89C104.433 104.887 104.177 104.687 102.28 102.957L100.135 101.455V101.454C97.8308 99.7025 95.1022 97.4568 92.8074 96.1016C88.7273 93.6921 85.0356 98.4117 85.1687 102.138C85.2326 103.924 88.604 106.127 87.9607 107.13C86.1842 107.402 83.2205 103.49 82.0789 102.581C81.0084 101.729 79.1206 100.508 78.0017 99.874C74.6107 97.9528 70.0015 92.7776 66.8357 97.8682C65.9415 99.3062 65.0971 100.829 64.9187 102.57C64.8198 104.026 67.763 105.792 67.6208 106.574C66.5965 106.669 63.5343 104.608 62.7576 103.885C60.0345 101.862 57.4924 99.6717 54.6843 97.7607C54.3022 97.5008 53.8208 97.1791 53.7517 96.7578C55.0203 96.2344 61.9522 101.317 62.9333 102.853C62.9962 102.799 63.0915 102.662 63.1462 102.59C62.5552 101.589 62.9832 100.918 63.4578 100.029C67.5891 92.2892 71.6546 93.6365 77.6736 98.293C78.3856 98.8436 81.6682 100.733 82.7791 101.397ZM72.5076 70.4316C73.6626 70.5261 74.8205 70.58 75.9792 70.5928C79.2096 70.7755 83.424 70.7305 86.4568 71.0264C86.7737 71.0649 87.1452 71.0581 87.3552 71.2617C87.2551 72.8355 87.172 73.5301 87.4089 75.083C91.0837 75.228 94.7603 75.1344 98.4382 75.1211C101.562 75.1098 104.695 75.1132 107.817 75.0176C107.86 75.0169 108.031 75.1452 108.068 75.2021C108.002 76.0261 107.967 76.5255 108.004 77.3574L92.5447 77.3535C87.1699 76.8307 80.9974 77.3627 75.5505 77.3848C69.0054 77.4112 62.3569 76.4545 55.908 77.7051C55.1317 77.855 53.9281 77.7493 53.1042 77.7939L52.8416 77.7129C52.5043 77.3686 52.3175 76.6146 52.158 76.1299C55.3399 75.4675 58.5191 75.5543 61.738 75.4902C65.3079 75.4192 68.9709 75.4503 72.5291 75.3037C72.5518 73.7213 72.6134 72.0003 72.5076 70.4316ZM80.9812 57.0615C81.5006 57.7874 81.0901 61.1091 81.2966 62.3096L81.3484 62.4316C81.3529 63.5267 81.4843 67.4702 81.3376 68.1064C80.4967 68.057 79.6544 68.0229 78.8123 68.0029C78.768 67.5984 78.8242 66.8988 78.7761 66.416C78.685 65.5018 78.5535 64.6149 78.5066 63.7002C78.7487 63.3227 79.1513 63.2048 79.5701 63.0215C79.7676 61.0945 79.6782 59.4134 79.5984 57.4902C79.8343 57.1854 80.209 57.1473 80.5886 57.0576L80.9812 57.0615ZM91.1023 65.0254C92.4895 65.3079 92.6033 64.8306 93.3142 66.2334C93.2295 66.5814 93.2382 66.6574 92.9988 66.9023C92.3302 66.9191 91.9935 67.0233 91.4207 66.7197C90.9512 66.1198 91.0332 65.8193 91.1023 65.0254ZM96.5564 62.7021C97.1215 62.8882 97.0404 62.77 97.3621 63.1797C97.4979 64.1345 97.3723 65.692 96.323 66.0869C96.1358 66.0604 96.0715 66.0734 95.9128 65.9834L95.9011 65.2461C95.9558 64.6239 95.9327 63.39 95.9412 62.7217L96.5564 62.7021ZM91.3923 58.6553C92.212 58.7885 92.8574 58.9097 93.6648 59.1045C93.6544 59.5933 93.6009 60.818 93.6482 61.2451C93.5998 61.7839 93.6658 62.0437 93.3875 62.4336C93.0279 62.5334 92.671 62.4691 92.2996 62.4307C91.9696 62.3708 91.697 62.3517 91.366 62.3252C91.4579 61.1448 91.4391 60.4515 91.3816 59.2627L91.3923 58.6553Z" fill="#5793BE"/>
<path fill-rule="evenodd" clip-rule="evenodd" d="M63.0308 36.1621C63.3157 36.005 63.5882 35.9521 63.9009 36.0479C66.375 36.8057 70.7699 45.7754 72.3873 48.0596C76.2856 48.3782 81.8579 48.1906 85.9078 48.2627C93.93 48.3522 101.953 48.3512 109.975 48.2608L125.075 48.2774C129.366 48.2411 134.142 47.9609 138.369 48.0186C140.087 49.1156 143.063 52.2223 143.435 54.2627C143.719 55.8289 143.722 58.6754 143.762 60.3506L143.976 72.3643C144.222 82.4475 144.387 92.5323 144.473 102.618C144.484 107.267 144.545 111.845 144.284 116.489C144.142 119.018 141.424 123.363 138.685 123.18C136.569 123.404 133.614 123.397 131.442 123.445C127.07 123.549 122.696 123.616 118.323 123.645C107.401 123.817 96.4774 123.882 85.5543 123.842L74.69 123.808C73.8986 123.804 70.6933 123.845 70.0445 123.743L53.5816 123.895C52.7821 124.063 48.8325 124.072 47.813 124.042C44.4356 123.943 41.3546 124.203 38.0005 124.41C37.7094 124.428 37.4763 124.485 37.3062 124.7C38.1684 124.709 39.7964 124.69 40.567 124.86C39.243 125.056 34.4114 124.831 32.7642 124.857C30.2975 124.787 27.8342 124.937 25.3697 124.904C24.7039 124.896 24.0142 124.803 23.356 124.701C22.5913 124.584 22.5358 124.389 22.2281 123.73L21.525 123.47C20.2647 122.781 19.6508 122.282 18.8052 121.134C17.9712 120.35 17.0246 117.871 16.9429 116.735C16.539 111.115 16.5309 105.457 16.4576 99.8223L16.1734 70.1807L16.0816 61.0899C16.0723 60.5233 15.9383 57.7178 16.0347 57.3662C17.1461 53.3151 18.0141 51.7592 21.3824 49.5606C21.6116 49.3603 21.855 49.1809 22.1246 49.0381C24.4888 47.7885 43.1807 48.086 46.0181 48.9678C46.3705 48.9832 47.0219 48.9613 47.2242 49.2246C48.0534 50.3046 48.8404 51.4447 49.6568 52.5322C50.6946 53.915 51.8364 54.7188 52.6119 56.2686C53.6793 52.8067 60.4265 37.6004 63.0308 36.1621ZM63.5132 45.9727C62.8362 48.1683 61.2122 51.1258 60.2349 53.2637C59.9462 53.8949 59.0459 55.4421 58.8834 56.0098L58.8462 56.1035C58.1581 57.3522 55.7458 62.8324 55.2056 63.4649C53.8529 63.0606 50.2733 62.7472 49.2427 63.624L49.1675 63.5401C48.4157 62.6895 47.8067 61.5671 47.1382 60.6631C45.9374 59.0393 45.0233 57.4283 44.4957 55.4658C44.1715 54.2603 43.9218 54.0916 42.6578 54.0381C37.1053 53.8656 31.539 54.0666 25.9898 54.2744C25.2585 54.3018 24.4998 54.3556 23.7769 54.4512C23.2821 55.4722 22.4037 57.1127 22.3472 58.1768C22.2154 60.6632 22.2595 63.3119 22.2857 65.8057L22.5504 81.6006L22.8043 106.429C22.865 110.048 22.7422 115.467 23.2408 118.9C30.1727 119.238 39.0327 118.829 46.1265 118.804C59.4596 118.74 72.793 118.781 86.1255 118.927L98.9097 118.959C100.492 118.962 103.512 118.863 104.961 118.979C104.018 119.139 101.902 119.108 100.893 119.115C98.5146 119.132 96.175 119.101 93.7925 119.186C94.6737 119.231 98.2489 119.083 98.4859 119.608L98.2779 119.697L98.2017 119.939C98.0572 120.018 94.087 120.004 93.0914 120.259L121.832 119.618C123.321 119.574 130.903 119.438 132.006 119.159L131.88 119.085C131.469 119.247 130.577 119.197 130.086 119.208L130.162 119.048C130.755 118.846 131.499 118.845 132.135 118.81L131.005 118.692C132.835 118.329 135.847 118.643 137.897 118.219C138.166 111.59 138.043 105.906 138.016 99.292C138.016 88.3167 137.823 77.3418 137.44 66.3731C137.35 63.703 137.501 56.2865 137.001 54.0899C135.071 53.7042 132.984 53.7416 131.016 53.6524C127.529 53.4941 124.072 53.4906 120.585 53.4756C112.984 53.4431 104.656 53.1587 97.0884 53.6211C95.102 53.4054 93.229 53.3213 91.2457 53.1777C89.9964 53.0872 87.8808 52.4895 86.6783 52.5332C83.5839 52.6457 80.3087 52.8391 77.2222 53.0342L77.2095 53.1465C77.8084 53.2889 78.7785 53.233 79.4214 53.2236C77.5154 54.0117 74.6106 53.1649 73.3443 53.7588C71.4744 53.7892 70.782 53.7047 68.941 53.335C66.4717 50.8509 65.5127 48.5051 63.5132 45.9727Z" fill="#717B88"/>
</svg>
