<svg width="160" height="160" viewBox="0 0 160 160" fill="none" xmlns="http://www.w3.org/2000/svg">
<path d="M85.4751 49.1868L87.6742 49.1648C87.1539 49.2959 87.0996 49.2176 86.8009 49.5504C87.1389 50.0955 89.0914 49.9074 89.7753 50.0207C88.1937 50.134 86.2631 50.0072 84.809 50.1893C84.6138 49.8967 84.5912 49.8574 84.5369 49.5109C84.8158 49.2314 85.0212 49.276 85.4751 49.1868Z" fill="#717B88"/>
<path d="M69.2399 46.9321C69.5676 47.1564 69.8911 47.3178 69.9878 47.7012L69.9284 48.1438C68.7295 49.1998 67.5426 50.2696 66.3681 51.3528C66.6037 50.907 66.7693 50.8072 66.6708 50.423L66.2531 50.2391L69.2399 46.9321Z" fill="#717B88"/>
<path d="M82.468 49.1106C83.5916 48.0694 86.038 48.1528 87.5127 48.0722C95.2437 47.6499 102.953 47.4956 110.694 47.5299C115.1 47.5496 119.552 47.4252 123.955 47.6047L123.805 48.3167C123.686 48.5853 123.401 49.316 123.216 49.4742L123.053 49.4501L123.106 49.5785C122.149 49.1944 122.173 50.5227 122.057 50.7787C122.026 50.3686 122.095 50.4231 121.883 50.1568C120.482 50.0157 118.607 50.1418 117.157 50.1244C113.534 50.0809 109.762 50.2371 106.152 50.1128C100.863 50.1809 95.0507 50.2057 89.7753 50.0205C89.0913 49.9072 87.1389 50.0953 86.8009 49.5502C87.0995 49.2175 87.1538 49.2958 87.6741 49.1646L85.475 49.1866C84.5162 49.1008 83.2196 49.284 82.468 49.1106Z" fill="#717B88"/>
<path d="M87.6743 49.1648C92.5145 48.6949 97.197 49.4508 101.887 49.4803C104.763 49.7494 108.107 49.4735 110.956 49.696L110.729 49.6583L111.118 49.7972C110.627 49.7908 109.384 49.704 109.027 49.9076L108.968 49.9922C108.289 50.012 106.76 50.0185 106.152 50.113C100.863 50.181 95.0508 50.2058 89.7754 50.0207C89.0915 49.9073 87.139 50.0955 86.801 49.5503C87.0997 49.2176 87.154 49.2959 87.6743 49.1648Z" fill="#717B88"/>
<path d="M101.887 49.4801C106.03 49.3308 112.344 49.3561 116.374 49.8635C115.472 49.9897 109.633 50.1708 108.968 49.9921L109.027 49.9075C109.384 49.7038 110.627 49.7906 111.118 49.7971L110.729 49.6581L110.956 49.6959C108.107 49.4734 104.763 49.7492 101.887 49.4801Z" fill="#717B88"/>
<path fill-rule="evenodd" clip-rule="evenodd" d="M124.023 48.6001C124.1 48.6947 124.145 48.7321 124.233 48.772C124.32 48.8119 124.451 48.854 124.698 48.9585C124.86 48.7775 125.146 48.5776 125.346 48.4253C126.048 50.1264 125.941 62.8468 125.907 70.8081C125.898 72.7984 125.894 74.4912 125.909 75.6401C125.913 76.0232 125.92 76.3461 125.929 76.5991C125.918 77.839 125.884 80.0434 125.741 82.3169C125.7 82.9666 125.65 83.6221 125.589 84.2622C125.483 85.3823 125.343 86.4558 125.16 87.3706C125.107 87.6322 125.051 87.8808 124.991 88.1138C124.931 88.3463 124.867 88.5633 124.799 88.7622C124.697 89.0611 124.585 89.3186 124.464 89.5269L124.291 89.6353L123.579 89.6196C119.935 89.562 115.071 89.8075 111.546 89.898C104.9 90.0905 98.2494 90.1607 91.6 90.1099C89.6455 90.0971 83.6677 90.1266 82.0639 89.5132C81.5429 89.5011 79.7853 89.1315 79.183 89.0181C76.6396 91.1859 74.9027 93.8996 72.809 96.4712C68.738 101.472 65.0382 106.729 61.225 111.92C56.8178 117.821 52.2449 123.595 47.5131 129.239C46.3366 130.654 42.9161 135.326 41.8129 136.233H41.8119C41.5478 137.208 41.2256 137.991 40.6185 138.801C40.6799 138.225 41.1513 137.239 41.3715 136.658C41.6833 135.834 41.3961 135.454 41.6098 134.494C42.3847 132.043 52.9035 118.143 55.1742 115.491C57.8931 111.828 61.5265 106.351 64.5209 102.971C65.1439 101.874 67.4157 99.7576 68.5062 98.1909C69.1068 96.9263 73.0877 91.3033 74.0287 90.104C74.5627 90.0402 75.9104 89.1139 76.5404 88.7827C76.5627 88.8377 76.5843 88.8878 76.6068 88.9331C76.5843 88.8877 76.5627 88.8378 76.5404 88.7827C77.1793 88.0468 77.5394 87.6115 78.0805 86.8042C78.622 87.1677 78.8881 87.1342 79.1195 87.2192L79.2182 87.2651L79.6723 87.3462C80.0885 87.4173 80.418 87.4582 80.9262 87.4741C81.1171 87.4637 81.3166 87.4551 81.5228 87.4487C82.967 87.404 84.7359 87.4477 86.1137 87.436L95.4652 87.3198C95.6927 87.2291 120.346 86.965 122.199 86.978C122.292 84.5386 122.234 81.8952 122.271 79.439C122.276 79.0595 122.234 78.9946 122.014 78.8003C120.931 78.9128 118.94 78.8961 117.78 78.9107L109.669 78.981C106.337 79.0096 95.6066 79.5068 92.5844 78.7329L92.3168 78.6538C90.1194 77.1356 90.1901 74.5921 90.1674 72.1548C90.117 71.8539 90.0518 71.5772 89.9838 71.2808C89.4675 71.0467 75.5228 70.9868 74.1273 70.9702C74.1348 69.8786 74.2054 69.0239 74.308 67.9341C76.8044 67.8402 82.0607 67.8454 84.3871 68.0298C86.2218 68.0117 88.0567 68.023 89.891 68.063C90.3411 66.7682 89.4123 61.8523 90.5892 60.8765L90.766 60.6743C91.1856 60.2053 91.6589 59.7762 92.3012 59.7056C93.4095 59.5836 94.5648 59.5269 95.7387 59.5073C96.4433 59.4956 97.1546 59.4969 97.8666 59.5054C99.7645 59.528 101.667 59.6008 103.458 59.604L114.874 59.5376C117.019 59.526 119.784 59.4366 121.871 59.603C121.923 59.537 121.986 59.4559 122.061 59.3608C122.138 57.4142 122.016 54.9682 122.011 52.811C122.01 52.4515 122.013 52.1001 122.02 51.7603C122.027 51.4202 122.04 51.0918 122.058 50.7788C122.109 50.6665 122.132 50.3492 122.223 50.0601C122.236 50.0189 122.25 49.9783 122.266 49.939C122.37 49.682 122.544 49.4776 122.862 49.5132C122.886 49.5159 122.912 49.5202 122.938 49.5259C122.99 49.5372 123.046 49.5547 123.106 49.5786L123.053 49.4507L123.216 49.4741C123.402 49.3155 123.687 48.5854 123.805 48.3169C123.907 48.4483 123.972 48.5371 124.023 48.6001ZM69.5648 46.314C70.2783 46.3055 77.7856 52.0375 78.5072 53.1148C79.2705 52.7523 80.7364 50.2123 82.4682 49.1108C83.2197 49.2842 84.5162 49.1012 85.475 49.187C85.0213 49.2762 84.8154 49.2309 84.5365 49.5103C84.5908 49.8567 84.6139 49.8965 84.809 50.189C82.3321 51.1968 78.7573 56.6817 76.7894 59.0278C75.3944 60.9207 74.2381 63.0576 72.7035 64.8091C71.8705 66.0569 70.427 67.5894 69.4525 68.8325C68.9098 69.525 67.8068 71.0363 67.2602 71.6157C66.466 72.6955 65.6073 73.7265 64.6889 74.7026C63.807 75.6775 62.9825 76.5919 62.1508 77.6148C61.9867 77.3918 61.4787 77.2381 61.1996 77.2573C61.1766 77.3495 61.1671 77.386 61.1635 77.4233L61.1605 77.5933L61.3881 77.7183C61.389 77.7456 61.3875 77.7747 61.3832 77.8052C61.379 77.8354 61.3717 77.8669 61.3627 77.8999C61.3445 77.9664 61.3173 78.0387 61.2816 78.1157C61.1746 78.3467 60.9944 78.622 60.7738 78.9214C60.7002 79.0213 60.6217 79.1235 60.5404 79.228C59.7285 80.2729 58.5949 81.5163 58.3705 82.231L58.6947 82.2515C58.3483 82.6637 57.4249 83.7475 56.6234 84.6167C56.4633 84.7903 56.3083 84.9556 56.1635 85.105C55.8735 85.4043 55.6247 85.641 55.4633 85.7583C52.6585 88.8651 49.8658 92.6227 47.1918 95.8735C39.7542 104.915 32.6209 114.326 25.2113 123.383C23.8259 125.077 16.8073 134.22 15.5482 135.07C15.308 135 15.3901 135.068 15.2348 134.913C14.5879 134.479 13.5732 134.795 13.0062 135.233C12.9743 134.95 13.0664 134.691 13.2455 134.471C16.0865 130.993 18.9395 127.66 21.6635 124.079C24.9655 119.946 28.8987 114.644 32.3002 110.732C33.5166 109.121 34.6678 107.606 36.0199 106.098C38.0905 103.556 40.1845 101.032 42.3012 98.5278C43.5599 97.0208 44.9931 95.3854 46.0795 93.7681L46.5336 93.228C47.5644 91.6246 49.2105 89.7683 50.4271 88.3003C51.6508 86.8235 52.7309 85.3971 53.8812 83.8599C55.1919 82.0728 56.6301 80.3452 57.9252 78.5396C58.4268 77.8401 59.0335 77.0128 59.6107 76.3882C59.9296 75.7745 62.6218 72.5754 63.2094 71.9302V71.9292L64.1225 70.5806C62.4487 68.3885 60.794 67.7129 58.8715 66.0523L58.4838 65.7066C58.1249 65.4389 57.6938 65.0649 57.3393 64.7749C56.5689 64.0843 55.9128 63.5655 55.0902 62.9351L55.7846 62.353C58.962 58.3579 62.6605 53.8427 66.2523 50.2388L66.6703 50.4233C66.7686 50.8072 66.6031 50.9074 66.3676 51.353C63.0874 55.364 59.8575 58.8764 56.5414 62.7886C56.7899 63.2427 58.0031 64.0083 58.4857 64.3452L59.4379 65.0191C60.9883 65.7279 64.1175 68.1029 65.0541 69.6411C67.0235 66.7823 69.7087 63.8863 71.9037 61.1753C73.5264 59.1709 75.134 57.0808 76.7416 55.0542C77.0064 54.7482 77.8107 53.9337 77.9105 53.5786L77.9213 53.5142L77.8461 53.4556C75.464 51.6077 72.0029 50.0665 69.9281 48.1441L69.9877 47.7007C69.8908 47.3176 69.5673 47.1563 69.2396 46.9321L69.5648 46.314ZM112.626 109.696C120.597 109.455 128.573 109.375 136.547 109.456C136.557 113.163 136.449 117.824 136.641 121.469L136.651 124.411C140.123 124.441 144.348 124.289 147.724 124.486C147.721 125.209 147.757 127.104 147.672 127.734L147.795 128.272C147.74 128.603 147.746 128.63 147.555 128.895C146.077 129.115 132.531 129.268 131.948 128.843L131.905 128.245C131.701 126.02 131.964 123.386 131.7 121.089C131.673 121.306 131.675 121.638 131.682 122.016H131.681C131.677 121.827 131.675 121.65 131.677 121.493C131.679 121.336 131.685 121.199 131.699 121.09C131.745 118.852 131.684 116.524 131.673 114.278C127.058 114.236 122.442 114.24 117.827 114.289C117.778 117.733 117.764 121.179 117.784 124.625C117.784 125.713 117.83 127.351 117.777 128.54L117.747 129.018L117.592 129.198C113.246 129.207 108.899 129.255 104.554 129.342C100.778 129.422 96.9373 129.595 93.1723 129.614C93.3862 124.812 93.1757 119.476 93.1693 114.595C90.4052 114.542 86.3315 114.383 83.6664 114.538C83.3505 114.76 81.8788 114.793 81.5346 114.673C79.1538 113.848 80.3453 117.516 80.2133 118.686C79.6123 117.902 80.1656 116.592 79.8363 115.282C79.7305 120.252 79.9649 125.091 79.9437 130.039L76.9594 130.103C74.7341 130.327 68.1902 130.082 65.7885 129.997C65.9345 128.877 65.9358 126.295 65.9662 125.062C68.5021 125.289 72.522 125.122 75.3119 125.236C75.183 123.9 75.1806 121.949 75.14 120.568C75.0663 117.331 74.956 114.095 74.809 110.861L74.7621 110.609C74.7251 110.393 74.7199 110.256 74.7719 109.953C74.8705 109.912 97.9423 109.706 98.4467 109.83C98.4284 109.942 98.4175 110.043 98.4066 110.135C98.4177 110.043 98.4294 109.942 98.4476 109.83C98.617 114.746 98.3855 119.79 98.5258 124.682C103.33 124.613 108.134 124.589 112.939 124.609L112.848 115.831C112.829 113.843 112.879 111.652 112.626 109.696ZM132.146 128.181H132.149C132.151 128.181 132.152 128.179 132.154 128.178C132.151 128.179 132.148 128.18 132.146 128.181ZM113.38 127.486C113.557 127.497 113.732 127.509 113.907 127.523C113.732 127.509 113.557 127.497 113.38 127.486ZM112.571 127.452C112.761 127.454 112.95 127.463 113.138 127.472C113.093 127.47 113.048 127.466 113.003 127.464C112.86 127.458 112.716 127.454 112.572 127.452C112.055 127.44 111.539 127.429 111.023 127.42L112.571 127.452ZM146.974 127.281C147.152 127.3 147.297 127.322 147.403 127.346L147.216 127.312C147.144 127.301 147.063 127.291 146.974 127.281ZM131.434 124.732C131.42 124.75 131.405 124.766 131.39 124.78C131.406 124.765 131.421 124.748 131.436 124.729L131.434 124.732ZM131.551 124.504L131.517 124.591C131.529 124.563 131.54 124.533 131.551 124.501V124.504ZM78.9779 88.3355V88.3364V88.3355ZM121.855 60.6148C121.083 60.6584 120.453 60.6769 119.751 60.6724L119.018 60.6607C118.901 60.6725 118.78 60.683 118.655 60.6929C118.028 60.7421 117.298 60.767 116.537 60.7788C115.622 60.793 114.662 60.7879 113.775 60.7817L112.135 60.7739L100.386 60.7817C98.6807 60.784 93.4492 60.7608 92.0375 61.2954C91.8813 63.5925 91.6134 76.1806 92.6742 77.3716C92.8393 77.5569 93.0403 77.7167 93.2357 77.8687L93.6674 77.9273C95.89 78.1925 99.0579 78.0913 101.212 78.0669C105.874 77.9685 110.536 77.9045 115.199 77.8735L115.519 77.8364C117.232 77.6716 120.578 77.755 122.105 77.8062L122.097 67.4146C122.097 65.6837 122.026 62.7539 122.237 61.1196L122.175 60.7759L121.855 60.6148ZM95.765 73.3062C96.5999 73.3315 97.3965 73.4434 98.3246 73.4624C100.555 73.5081 102.955 73.3548 105.16 73.4605L105.284 73.6528L105.101 73.9907C102.841 74.1216 99.831 73.8339 97.5004 73.9937C97.3675 74.0028 96.3128 74.4236 96.1166 74.5025C95.8729 74.2178 95.8365 73.7029 95.765 73.3062ZM113.054 63.8833C115.388 63.7768 117.238 66.0487 118.133 68.0054C119.303 70.5612 116.323 73.0007 114.157 73.8355C108.774 74.4654 105.77 66.2134 113.054 63.8833ZM96.4877 63.7632C97.4644 63.8055 98.749 63.888 99.3217 64.0601C99.4106 64.2985 99.1968 65.0523 99.1146 65.311L98.8939 65.2993C98.5974 64.7017 98.9219 64.604 98.5316 64.2554C97.9679 64.3839 97.6922 65.0171 97.1879 65.3716L96.6107 65.3901C96.4644 65.399 96.3199 65.4146 96.185 65.4448C96.1399 65.4549 96.0958 65.4663 96.0531 65.48L95.8275 65.4849C95.6737 65.4905 95.6865 65.4836 95.4496 65.3306C95.2115 64.81 95.3097 64.1752 95.6517 63.7319L96.4877 63.7632ZM99.8588 63.9019C101.272 63.8164 102.806 64.0088 104.269 63.9526L104.428 64.2173C104.342 64.7082 104.428 64.5498 104.145 64.895L103.891 64.8452C102.83 64.9151 102.043 64.4582 100.885 64.4253L100.726 64.5816C100.802 64.8839 100.866 65.0019 100.772 65.2837L100.509 65.3247C100.192 65.0346 100.198 64.5468 99.9086 63.9946L99.8588 63.9019ZM75.2982 64.3745C79.9568 64.6221 84.6275 64.8496 89.2973 64.9097C89.4012 64.9958 89.4894 65.0681 89.5609 65.1275C88.1606 65.3809 77.0844 64.8419 75.2924 64.5942L75.2787 64.3794C75.2853 64.3779 75.2917 64.3759 75.2982 64.3745Z" fill="#717B88"/>
<path d="M123.955 47.6047C124.797 47.777 124.736 47.6857 125.346 48.4251C125.146 48.5773 124.861 48.7776 124.698 48.9586C124.039 48.6796 124.211 48.843 123.805 48.3167L123.955 47.6047Z" fill="#717B88"/>
<path d="M130.045 22C130.846 22.0748 131.685 22.1254 132.49 22.1859C132.501 24.7103 132.791 27.3194 132.705 29.8364L135.826 29.8323L140.47 29.7809L140.296 32.6496C138.273 32.6978 136.187 32.7722 134.17 32.7655C133.773 32.8295 133.038 32.8469 132.61 32.8694C132.6 35.2986 132.629 37.7281 132.699 40.1564C131.861 40.1807 130.951 40.1617 130.106 40.1591C130.126 37.686 130.158 35.2131 130.203 32.7403C130.217 32.1151 130.317 30.5271 130.109 30.0442C129.94 29.0626 129.952 23.0756 130.045 22Z" fill="#5797BC"/>
<path d="M135.826 29.8322L140.47 29.7808L140.296 32.6495C138.273 32.6977 136.187 32.7721 134.17 32.7653C133.711 32.7148 133.042 32.7093 132.565 32.6906C132.517 31.594 132.547 31.0661 132.657 29.9709C133.312 29.967 135.441 30.051 135.826 29.8322Z" fill="#5085A6"/>
<path d="M130.109 30.0442C130.317 30.527 130.217 32.1151 130.203 32.7402C127.644 32.7105 124.659 32.8967 122.175 32.7543C122.142 32.1047 121.865 30.7636 121.739 30.0699L130.109 30.0442Z" fill="#5085A6"/>
</svg>
