<svg width="160" height="160" viewBox="0 0 160 160" fill="none" xmlns="http://www.w3.org/2000/svg">
<path d="M127.1 25C127.902 25.0748 128.74 25.1254 129.545 25.1859C129.556 27.7103 129.846 30.3194 129.76 32.8364L132.881 32.8323L137.525 32.7809L137.351 35.6496C135.329 35.6978 133.242 35.7722 131.225 35.7655C130.828 35.8295 130.093 35.8469 129.665 35.8694C129.655 38.2986 129.685 40.7281 129.754 43.1564C128.916 43.1807 128.006 43.1617 127.162 43.1591C127.181 40.686 127.213 38.2131 127.258 35.7403C127.272 35.1151 127.372 33.5271 127.164 33.0442C126.995 32.0626 127.007 26.0756 127.1 25Z" fill="#5797BC"/>
<path d="M132.881 32.8322L137.525 32.7808L137.351 35.6495C135.329 35.6977 133.242 35.7721 131.225 35.7653C130.766 35.7148 130.098 35.7093 129.621 35.6906C129.573 34.594 129.602 34.0661 129.713 32.9709C130.367 32.967 132.496 33.051 132.881 32.8322Z" fill="#5085A6"/>
<path d="M127.164 33.0442C127.372 33.527 127.272 35.1151 127.258 35.7402C124.699 35.7105 121.714 35.8967 119.23 35.7543C119.197 35.1047 118.92 33.7636 118.794 33.0699L127.164 33.0442Z" fill="#5085A6"/>
<path d="M79.5156 43.1157C87.0329 43.2905 94.4332 43.1918 101.938 43.1909C104.054 43.1905 110.266 43.1036 111.976 43.394C112.751 44.0846 113.201 44.4249 114.059 45.0122C114.262 45.6158 114.41 46.5046 114.51 46.9048L114.55 47.0444C114.604 49.0295 114.683 51.0396 114.102 52.9663C108.328 54.5884 101.87 53.7293 95.7275 54.4087C95.5779 56.4983 95.5262 58.4926 95.5635 60.5669C95.6258 64.0409 96.1614 65.3823 99.9033 65.521C101.575 65.5828 103.525 65.4771 105.179 65.5767C105.257 66.1859 105.316 66.7587 105.484 67.3521C106.188 67.9629 106.522 68.3372 106.943 69.1694C107.137 69.553 107.129 70.6469 107.367 70.6694C112.205 71.1256 121.876 70.6201 126.282 70.7622C126.657 78.4849 126.926 86.2128 127.089 93.9429L115.691 93.9897C113.099 94.006 106.282 93.5748 104.806 95.9692C101.748 99.6026 97.3346 104.335 92.2754 104.773C91.7957 104.812 91.3149 104.842 90.834 104.862C89.3543 104.725 85.1974 104.932 84.0078 104.668C80.4519 103.881 74.8008 98.6164 72.1367 96.2251C71.693 96.4987 70.5224 96.2021 69.8066 96.1118C62.7773 95.2255 55.7781 96.0218 48.7637 96.4497C48.7352 96.4506 48.5801 96.3911 48.5488 96.3813C48.0856 97.2561 48.0658 97.958 48.0449 98.9282C47.94 101.93 48.2572 108.291 46.0986 110.423C45.9382 110.582 45.2397 111.141 45.0195 111.315C40.8074 111.586 35.0911 110.993 30.8408 110.743C28.8606 110.626 25.2153 110.333 23.3604 109.852C23.4249 109.299 23.3465 107.261 23.334 106.599C23.2868 103.915 23.1968 101.232 23.0635 98.5503C23.0823 97.4085 23.0295 96.1323 23.0068 94.981L23 91.062C23.1219 87.6128 22.9352 84.2191 23.0859 80.7124C23.1832 80.5498 23.2869 80.3904 23.3965 80.2358C29.7743 71.1473 38.5501 71.6759 48.4854 71.7681C53.095 71.844 57.7063 71.8318 62.3154 71.731C63.929 71.7002 67.1111 71.7326 68.5508 71.481C69.8944 69.6352 69.9633 67.9962 70.9766 65.9312C73.712 65.9314 76.4471 65.8499 79.1777 65.688C79.8304 64.3733 79.8528 64.0484 80.2842 62.7056L80.7158 62.4038C81.1198 61.722 81.1279 55.6136 80.5439 54.9194C79.0162 54.2058 65.5237 54.0657 62.5498 53.937C62.9047 50.8845 62.239 49.0167 61.9795 46.2261L61.9336 45.6558L61.9062 45.4917C61.8946 45.3561 61.9293 45.2838 61.9951 45.0815C63.239 44.494 63.5068 44.4435 63.9814 43.2231C69.0704 43.0671 74.372 43.3592 79.5156 43.1157Z" fill="#D9D9D9"/>
</svg>
