<svg width="160" height="160" viewBox="0 0 160 160" fill="none" xmlns="http://www.w3.org/2000/svg">
<path d="M46.3646 108.431C49.1526 108.235 52.9176 108.294 55.8089 108.24C64.5248 108.15 73.2412 108.122 81.9576 108.156C87.1547 108.193 92.6344 108.369 97.7919 108.165C97.5446 108.988 97.3218 111.959 97.2312 112.942L97.1252 113.648C96.6737 114.718 96.2422 124.526 96.3062 126.159C93.6729 126.837 90.7545 127.904 88.1466 128.507C85.2798 129.169 79.8312 129.225 76.9153 128.614C76.4685 128.52 75.6233 127.981 75.1688 127.764C73.6387 127.035 71.7785 127.511 70.0401 127.088C68.7497 126.774 67.1669 125.997 65.9972 125.76C65.0526 125.568 62.5603 125.59 61.5029 125.59C60.0148 125.591 56.6606 125.366 55.3857 125.614C52.6337 126.148 49.1109 127.774 46.4406 128.706C46.5389 126.917 46.4538 124.344 46.4516 122.504L46.3646 108.431Z" fill="#5CA0C4"/>
<path d="M42.2838 103.761C43.286 103.758 44.959 103.802 45.9014 103.676C45.7625 105.56 45.8366 107.229 45.9509 109.115L45.9353 110.434C45.9436 111.53 45.9118 113.077 46.0478 114.128C43.8945 114.147 41.7409 114.131 39.588 114.082C39.6155 113.436 39.7255 113.213 39.4544 112.681C38.9259 112.313 37.7409 112.405 36.9985 112.379C37.7744 112.206 38.8909 112.263 39.7043 112.277C39.767 109.888 39.9693 106.039 40.2575 103.745C40.905 103.793 41.3495 103.786 42.0007 103.766L42.2838 103.761Z" fill="#99646A"/>
<path d="M42.2838 103.761C43.286 103.758 44.959 103.802 45.9014 103.676C45.7625 105.56 45.8366 107.229 45.9509 109.115L45.9353 110.434C45.01 110.778 43.3707 111.212 42.356 111.519C42.6352 108.886 42.2669 106.736 42.0388 104.14C42.0388 104.14 42.2611 103.796 42.2838 103.761Z" fill="#99646A"/>
<path d="M28.1719 113.743C28.3292 113.136 28.445 112.851 29.1456 112.735C31.6132 112.33 34.5348 112.398 36.9986 112.379C37.741 112.405 38.9259 112.313 39.4545 112.681C39.7256 113.214 39.6155 113.436 39.588 114.083C37.0928 114.069 34.5972 114.078 32.1021 114.112C31.017 114.12 29.7873 114.161 28.7026 114.088C28.3335 114.063 28.372 114.011 28.1719 113.743Z" fill="#99646A"/>
<path d="M103.742 45.823C105.773 46.3015 114.683 51.1553 115.497 50.9709C115.724 51.7541 115.766 52.3283 115.853 53.1331C115.986 55.5373 115.812 58.931 115.793 61.4378L115.696 78.5841C115.673 81.5026 115.529 85.246 115.635 88.0702L115.604 91.4426C115.971 91.4687 116.712 91.5026 117.04 91.5696C116.6 91.5889 116.092 91.5227 115.83 91.7738L115.816 91.833C115.66 91.9658 115.605 91.9544 115.598 92.0799C115.493 93.8761 115.501 95.7232 115.48 97.5252C115.424 100.081 115.404 102.638 115.42 105.195L115.411 113.292C110.674 113.332 106.121 113.495 101.368 113.445C99.9664 113.477 98.5136 113.483 97.1251 113.648L97.2312 112.941C97.3217 111.959 97.5446 108.988 97.7919 108.165C98.0436 107.187 98.2449 104.628 98.3732 103.466C99.8424 103.265 101.473 103.264 102.978 103.14L103.095 92.8321L103.111 92.4311C102.863 87.2722 103.212 80.7453 103.246 75.4248C103.473 74.8395 103.365 70.9635 103.337 70.1379C103.133 65.3924 103.493 59.4143 103.485 54.5079L103.706 54.2051C103.575 53.2542 103.574 46.4701 103.742 45.823Z" fill="#7C828C"/>
<path d="M102.978 103.141C103.268 103.18 104.016 103.257 104.152 103.486C105.105 105.097 104.722 108.453 104.776 110.289C104.822 111.325 104.857 112.289 104.854 113.325C103.964 113.323 102.159 113.272 101.368 113.445C99.9664 113.478 98.5136 113.483 97.1251 113.648L97.2312 112.941C97.3217 111.959 97.5446 108.988 97.7919 108.165C98.0436 107.188 98.2449 104.628 98.3732 103.466C99.8424 103.265 101.473 103.264 102.978 103.141Z" fill="#99646A"/>
<path d="M104.776 110.289C104.822 111.325 104.857 112.289 104.854 113.325C103.964 113.323 102.159 113.272 101.368 113.445C99.9664 113.478 98.5136 113.483 97.1251 113.648L97.2312 112.941C99.5135 112.81 102.377 113.359 104.364 113.06C104.835 112.529 104.752 111.051 104.776 110.289Z" fill="#99646A"/>
<path d="M35.9669 47.9832C37.2673 47.5165 39.0799 47.0068 40.4209 46.6228C40.5118 47.8961 40.5391 51.1937 40.3032 52.3527C39.9886 53.5028 39.934 53.9455 39.8232 55.1327C40.1029 55.5146 40.2079 55.8206 40.5761 55.9105C40.7839 55.5233 40.7777 55.3769 40.8161 54.9535C40.9724 56.18 40.8773 58.6476 40.8443 59.93C40.7705 62.231 40.7337 64.533 40.7337 66.835C40.7456 74.9567 40.6983 83.0782 40.5918 91.1991C40.5815 93.8039 40.5573 96.4084 40.5192 99.0129C40.5009 100.273 40.5199 102.433 40.3119 103.599C40.7713 103.639 41.5737 103.685 42.0007 103.766C41.3495 103.787 40.905 103.793 40.2575 103.745C39.9693 106.039 39.767 109.888 39.7043 112.277C38.8909 112.263 37.7744 112.206 36.9985 112.379C34.5347 112.398 31.6132 112.33 29.1456 112.735C28.445 112.851 28.3292 113.136 28.1718 113.743C28.2421 112.817 28.1687 110.893 28.1605 109.911C28.14 107.278 28.1049 104.644 28.0551 102.012C28.0744 96.61 27.773 54.4729 28.4058 53.2181C29.9746 50.1067 33.9864 50.4939 35.9669 47.9832Z" fill="#7C828C"/>
<path d="M122.617 16H124.57C124.883 16.8012 124.763 22.9292 124.808 24.3338C126.887 24.0679 130.535 24.0508 132.704 24.0504C132.694 24.9986 132.695 25.9419 132.625 26.8877C130.599 26.9463 126.596 27.1552 124.74 26.9976C124.781 29.3012 124.729 32.5385 124.928 34.7523C124.155 34.7217 123.363 34.6989 122.592 34.6576C122.602 33.8388 122.618 27.32 122.378 27.0002C122.309 26.4231 122.371 25.1015 122.398 24.4991C122.804 23.56 122.117 17.6785 122.617 16Z" fill="#5CA0C4"/>
<path d="M98.3692 45.6616C100.172 45.7089 101.925 45.7963 103.742 45.8232C103.574 46.4703 103.575 53.2544 103.706 54.2053L103.485 54.5081C102.244 54.5487 99.424 54.2823 98.1505 54.1435L98.1235 53.9622C98.1785 51.1946 98.2604 48.4276 98.3692 45.6616Z" fill="#99646A"/>
<path d="M98.1235 53.9621C99.0074 53.7844 102.884 53.8635 103.706 54.2052L103.485 54.508C102.244 54.5486 99.424 54.2822 98.1505 54.1434L98.1235 53.9621Z" fill="#311921"/>
<path d="M40.421 46.6229C40.9617 45.833 44.1673 45.8611 45.2242 45.752C45.2127 47.2292 45.0519 48.6498 45.0582 50.1696C45.0628 51.2945 45.2707 53.3578 45.1378 54.3394C44.5056 54.8782 42.2043 54.6812 40.8162 54.9535C40.7778 55.377 40.784 55.5234 40.5762 55.9106C40.208 55.8206 40.103 55.5146 39.8232 55.1328C39.9341 53.9455 39.9887 53.5028 40.3033 52.3527C40.5392 51.1938 40.5119 47.8961 40.421 46.6229Z" fill="#962932"/>
<path d="M40.4209 46.6229C40.9617 45.833 44.1673 45.8611 45.2241 45.752C44.4887 46.4812 43.7361 46.5661 43.0487 47.0646C42.3738 47.2047 41.8885 51.2401 41.6779 52.2436L41.0552 52.7321C40.8604 52.5046 40.5968 52.4547 40.3032 52.3527C40.5392 51.1938 40.5119 47.8961 40.4209 46.6229Z" fill="#652A43"/>
<path d="M41.678 52.2435C41.8885 51.24 42.3739 47.2046 43.0487 47.0645C42.9124 48.3906 42.7868 50.9843 43.3011 52.2086C42.7838 52.2062 42.1849 52.1874 41.678 52.2435Z" fill="#B0B4B7"/>
<path d="M41.6779 52.2437C42.1849 52.1876 42.7837 52.2064 43.3011 52.2088C43.1199 53.2223 41.5422 53.3573 41.0552 52.7322L41.6779 52.2437Z" fill="#962932"/>
<path d="M114.379 24.1616C117.053 24.2427 119.727 24.3552 122.398 24.4991C122.371 25.1015 122.309 26.4232 122.378 27.0002C121.16 27.0662 117.324 26.9335 116.147 26.8296C115.641 26.8406 114.983 26.9062 114.541 26.7051L114.458 26.3835C114.408 25.7037 114.402 24.8556 114.379 24.1616Z" fill="#3C79AD"/>
<path d="M114.458 26.3835C115.569 26.1591 116.87 26.3657 117.983 26.5211L118.058 26.7558C117.47 26.7394 116.745 26.8036 116.147 26.8296C115.641 26.8406 114.983 26.9062 114.541 26.7051L114.458 26.3835Z" fill="#2F5881"/>
</svg>
