<svg width="160" height="160" viewBox="0 0 160 160" fill="none" xmlns="http://www.w3.org/2000/svg">
<path d="M63.0307 36.1621C63.3156 36.005 63.588 35.9521 63.9008 36.0479C66.3749 36.8055 70.7708 45.7755 72.3881 48.0596C76.2864 48.3781 81.858 48.1906 85.9077 48.2627C93.9299 48.3522 101.953 48.3512 109.975 48.2608L125.075 48.2774C129.366 48.2411 134.142 47.9609 138.369 48.0186C140.086 49.1156 143.063 52.2223 143.435 54.2627C143.719 55.8289 143.723 58.6754 143.763 60.3506L143.977 72.3643C144.223 82.4474 144.387 92.5324 144.473 102.618C144.484 107.267 144.545 111.845 144.284 116.489C144.142 119.018 141.424 123.363 138.685 123.18C136.569 123.404 133.614 123.397 131.442 123.445C127.07 123.549 122.696 123.616 118.323 123.645C107.401 123.817 96.4773 123.882 85.5541 123.842L74.6899 123.808C73.8984 123.804 70.6948 123.845 70.0453 123.743L53.5815 123.895C52.7817 124.063 48.8323 124.072 47.8129 124.042C44.4355 123.943 41.3545 124.203 38.0004 124.41C37.7092 124.428 37.4762 124.484 37.3061 124.7C38.1682 124.709 39.7963 124.69 40.5668 124.86C39.2428 125.056 34.4127 124.831 32.7651 124.857C30.2982 124.787 27.8342 124.937 25.3696 124.904C24.7038 124.896 24.014 124.803 23.3559 124.701C22.5913 124.584 22.5357 124.389 22.228 123.73L21.5248 123.47C20.2647 122.781 19.6506 122.282 18.8051 121.134C17.9711 120.35 17.0244 117.871 16.9428 116.735C16.5389 111.115 16.5308 105.457 16.4575 99.8223L16.1733 70.1807L16.0815 61.0899C16.0721 60.5233 15.9382 57.7178 16.0346 57.3662C17.146 53.3151 18.014 51.7592 21.3823 49.5606C21.6115 49.3603 21.8548 49.1809 22.1244 49.0381C24.4882 47.7884 43.1802 48.086 46.018 48.9678C46.3703 48.9832 47.0218 48.9613 47.2241 49.2246C48.0533 50.3046 48.8403 51.4447 49.6567 52.5322C50.6945 53.915 51.8363 54.7188 52.6118 56.2686C53.6791 52.8068 60.4263 37.6008 63.0307 36.1621ZM63.5131 45.9727C62.836 48.1683 61.212 51.1258 60.2348 53.2637C59.9461 53.895 59.0458 55.4421 58.8832 56.0098L58.8461 56.1035C58.158 57.3522 55.7455 62.8327 55.2055 63.4649C53.8528 63.0606 50.2731 62.7472 49.2426 63.624L49.1674 63.5401C48.4156 62.6895 47.8065 61.5671 47.1381 60.6631C45.9373 59.0393 45.0232 57.4283 44.4955 55.4658C44.1714 54.2603 43.9218 54.0916 42.6577 54.0381C37.1052 53.8656 31.5389 54.0666 25.9897 54.2744C25.2586 54.3018 24.5005 54.3556 23.7778 54.4512C23.2829 55.4722 22.4035 57.1127 22.3471 58.1768C22.2152 60.6632 22.2604 63.312 22.2866 65.8057L22.5502 81.6006L22.8041 106.429C22.8648 110.048 22.7431 115.467 23.2416 118.9C30.1734 119.238 39.0328 118.829 46.1264 118.804C59.4595 118.74 72.7929 118.781 86.1254 118.927L98.9106 118.959C100.493 118.962 103.512 118.863 104.96 118.979C104.017 119.139 101.903 119.108 100.894 119.115C98.5153 119.132 96.1751 119.101 93.7924 119.186C94.6734 119.231 98.2487 119.083 98.4858 119.608L98.2778 119.697L98.2026 119.939C98.0647 120.018 94.0876 120.003 93.0912 120.259L121.831 119.618C123.321 119.574 130.903 119.438 132.006 119.159L131.88 119.085C131.469 119.247 130.577 119.197 130.086 119.208L130.162 119.048C130.755 118.846 131.499 118.845 132.135 118.81L131.005 118.692C132.835 118.329 135.847 118.643 137.897 118.219C138.166 111.59 138.042 105.906 138.016 99.292C138.016 88.3167 137.824 77.3418 137.441 66.3731C137.35 63.703 137.501 56.2865 137 54.0899C135.071 53.7042 132.984 53.7416 131.016 53.6524C127.529 53.4941 124.071 53.4906 120.584 53.4756C112.984 53.4431 104.656 53.1587 97.0883 53.6211C95.1021 53.4055 93.2297 53.3213 91.2465 53.1777C89.9974 53.0873 87.8818 52.4897 86.6791 52.5332C83.5846 52.6457 80.3087 52.8391 77.2221 53.0342L77.2094 53.1465C77.8083 53.2888 78.7784 53.233 79.4213 53.2236C77.5152 54.0116 74.6104 53.1648 73.3442 53.7588C71.4743 53.7892 70.7819 53.7047 68.9409 53.335C66.4717 50.8509 65.5125 48.5051 63.5131 45.9727Z" fill="#717B88"/>
<path d="M82.9014 61C82.9485 63.7168 82.77 66.4768 82.8086 69.2236C82.8151 71.8973 82.733 75.6435 82.8984 78.2617L82.9365 78.7334L82.9219 79.2139L82.9111 86.2266L82.916 86.9502C82.913 87.4845 82.8982 88.0935 82.9004 88.6602L82.9092 89.209L82.9355 89.8779C82.9541 90.5344 82.9513 91.1631 82.9443 91.8486C85.4802 92.0492 87.9026 92.1157 90.4229 91.6768C90.8391 91.6043 90.9835 91.5945 91.3965 91.7109C93.4387 91.9104 98.5354 91.6514 100.549 91.3174L100.643 91.2344C101.555 90.3868 100.643 89.5516 101.32 88.8066C101.478 88.8056 102.945 89.4512 103.263 89.5771C103.477 90.0136 103.346 90.7194 103.339 91.3125C104.426 91.1846 106.087 91.0554 107.021 91.6689L107.194 91.9502C107.019 92.6585 106.251 93.0728 105.604 93.377C105.191 93.7077 104.269 94.3398 103.956 94.6182C103.573 95.0322 102.957 95.7085 102.376 95.8027L102.196 95.7568C101.463 95.6321 101.352 96.3888 100.554 95.9111C100.38 95.3236 100.935 94.9124 100.798 94.3418C100.192 93.9019 97.972 93.9374 97.1113 93.9072C95.7057 93.9675 94.8857 93.9884 93.4648 93.8789L92.0312 94.0068C91.1134 94.4577 89.7354 93.7926 88.4902 94.0781C87.6436 94.0497 87.4118 94.081 86.5879 94.29C86.1903 94.235 85.7689 94.2892 85.3643 94.3203C84.7363 94.3214 83.341 94.1941 82.7373 94.0684C82.592 94.5662 82.664 95.3773 82.71 95.9131C83.0761 96.591 83.9922 97.327 84.5967 97.8838C86.2077 99.368 88.8359 103.11 88.6641 105.456C88.5769 105.613 88.5686 105.682 88.4297 105.768C87.3141 105.963 86.102 106.116 85.0098 105.782C85.1976 105.011 84.7733 104.959 84.4727 104.427C83.2542 102.267 81.5049 102.383 79.3691 102.592C78.0887 104.261 78.607 105.485 76.9951 107.748C75.6926 108.109 75.0835 108.351 74.1611 107.183C71.6927 104.054 75.4542 101.87 75.833 98.4062C76.743 98.037 77.0851 97.8865 77.9102 97.3604C78.0604 95.6601 78.0309 93.617 78.043 91.8799C78.0551 91.8273 78.0662 91.7515 78.0762 91.6553C78.0662 91.7513 78.0551 91.8274 78.043 91.8799L77.9092 91.8838C76.7583 91.9138 75.7305 91.7545 74.4121 91.8398C73.184 91.9195 71.6999 92.2187 70.5957 92.248C69.8273 93.9232 67.4237 93.1503 66.0215 93.4307C65.0643 93.6218 61.432 93.6069 60.8154 93.8633C60.7395 94.1771 60.7055 94.3363 60.6748 94.6572C60.3791 95.3827 60.2728 96.0624 59.498 96.3086C58.6786 96.2116 58.1221 95.48 57.4111 95.2686C54.7122 94.4663 53.7875 95.7991 53.4688 92.2998C55.504 90.6179 57.879 90.4647 60.0273 88.1846L60.2539 89.8965C60.3016 90.2594 60.3576 91.3731 60.502 91.543C63.2606 91.6332 67.9114 91.96 70.5674 91.751L70.6328 91.7275C71.4633 91.492 76.8512 91.37 77.9766 91.2812C78.04 89.5554 78.003 87.6656 77.998 85.9258C76.8901 85.8683 74.502 85.9311 73.5264 85.6387C74.0277 85.4376 77.2064 85.3404 77.9912 85.3076C78.0049 84.4618 78.0024 83.7739 78.1299 82.9346C78.1821 82.1692 78.1482 80.9427 78.1523 80.1416C78.2 77.1907 78.2714 71.5964 78.0371 68.7881C78.0755 67.4372 77.562 61.9383 77.9824 61.2988C80.0015 61.4453 80.9054 61.2789 82.9014 61Z" fill="#3583B2"/>
</svg>
