<svg width="160" height="160" viewBox="0 0 160 160" fill="none" xmlns="http://www.w3.org/2000/svg">
<path d="M66.875 33.9168C68.7703 31.2359 70.4282 28.3415 72.4854 25.788C74.5981 23.1657 77.3348 23.2707 79.1245 26.0897C78.8131 26.861 78.8612 27.3632 78.389 28.0703C77.3941 29.305 76.2472 31.7586 75.3416 33.1669C74.3433 34.7191 73.0236 36.1786 72.2646 37.8319C71.9681 38.4776 71.7435 40.7963 71.8099 41.5064C69.7959 45.1583 66.1154 49.7292 64.9167 53.3835C65.4314 53.9064 67.165 55.8355 67.7546 55.8971C69.1692 55.4257 74.5103 47.4362 75.5388 45.7826C76.5762 44.1145 77.4427 42.3487 78.5105 40.696C79.8425 38.6346 81.3228 36.6847 82.6812 34.6449C84.0703 32.5594 85.749 29.3255 87.8376 27.9349C88.9966 27.1632 90.4246 27.104 91.6662 27.7128C92.4251 28.0849 93.032 28.6554 93.3062 29.4684C93.8562 31.1002 93.1792 33.0551 92.4317 34.5208C91.6884 35.9779 90.7024 37.3305 89.86 38.734C89.0191 40.1351 88.234 41.5787 87.3441 42.9488C86.082 44.8919 84.698 46.7559 83.448 48.7067C82.315 50.475 81.2846 52.3088 80.1713 54.0896C79.1684 55.6938 77.9776 57.2619 77.1236 58.9462C76.861 59.464 76.4335 60.2441 76.6229 60.8324C76.87 61.6004 77.9418 62.9339 78.6742 63.3029C78.8516 63.3922 79.0153 63.3767 79.207 63.3257C80.4429 62.9964 86.4136 53.9 87.3723 52.3961C88.2882 50.9594 89.0699 49.4404 89.977 47.9987C91.4769 45.6149 95.7134 39.4281 97.8786 37.9818C99.2014 38.3325 101.84 39.2394 102.554 40.5119C102.721 40.8098 102.617 41.634 102.505 41.9815C101.205 46.6463 98.3252 50.0255 95.9913 54.123C94.2012 58.1725 90.892 61.5827 89.0905 65.6392C88.7197 66.4742 88.51 67.2778 88.0404 68.0758C88.8818 69.1007 89.434 70.0696 90.3969 71.0866C92.5326 69.9901 97.2371 61.936 98.9618 59.5548C100.612 57.2762 100.663 56.0986 103.19 53.9346C104.494 54.1119 105.293 54.1781 106.612 54.0364C107.289 54.2717 109.127 55.3896 109.528 55.9511C109.148 57.4989 106.625 63.3808 105.665 64.1152C105.115 65.1173 104.552 66.0064 103.943 66.9693C101.604 70.7942 99.2144 74.588 96.7749 78.3494C96.2009 79.2313 94.5849 81.8084 93.9332 82.4249C93.7163 83.2644 88.6699 89.3577 87.6702 90.2791C84.8801 92.8504 82.5975 94.0411 79.1101 95.2529C76.5856 96.2936 74.4323 96.9982 71.6538 96.9016C68.7457 96.9236 66.1351 95.8474 63.4129 95.1553C60.2883 94.3608 59.2477 93.539 56.6455 91.8719C52.1362 88.983 48.8238 85.614 45.1608 81.7672L44.996 81.3551C44.3202 80.0412 43.6106 78.3541 42.9838 76.9815C42.8786 76.6627 42.865 76.5347 42.6227 76.2993C42.5179 76.0218 42.224 74.2286 42.1432 73.8053C42.0729 73.3148 41.6941 72.0296 41.5495 71.492L41.2841 70.4818C40.0882 65.4074 39.0473 60.2976 38.163 55.1597C37.5116 51.507 36.9239 50.2886 37.0081 46.2876C37.8364 45.514 39.4961 44.1727 40.4469 43.6225C40.7915 43.7157 43.0237 43.4911 43.423 43.3831C44.2116 43.7725 46.5529 45.4947 46.9376 46.3859C47.9986 48.845 48.5604 52.6534 49.2475 55.3451C49.4715 56.2227 49.6141 58.6515 50.463 58.7702C51.7717 57.5594 52.9932 54.4733 54.1471 52.902C56.5335 49.6523 58.7909 46.3447 60.9535 42.9431C62.371 40.7133 64.6398 38.2151 65.6753 35.817C65.8992 35.657 66.7042 34.228 66.875 33.9168Z" fill="#65A4C8"/>
<path d="M93.9332 82.4249C94.0654 81.5028 96.8043 77.7399 97.3942 76.7308C98.4238 74.9762 99.3772 73.1779 100.252 71.341L100.469 71.3006L100.463 71.2692L100.517 71.8714L100.651 71.8072C100.818 71.3509 100.858 71.2403 101.279 70.9812C101.438 69.9765 103.388 67.6708 103.922 66.6762C104.461 65.6701 104.809 65.0525 105.43 64.0952L105.665 64.1153C105.115 65.1174 104.552 66.0064 103.943 66.9693C101.604 70.7943 99.2144 74.588 96.7749 78.3495C96.2009 79.2313 94.5849 81.8084 93.9332 82.4249Z" fill="#81A2B5"/>
<path d="M95.9913 54.123C95.9412 53.2327 99.0834 48.33 99.5965 47.1293C100.043 46.4602 100.358 44.9528 100.801 44.3541C101.754 43.0675 102.686 42.8496 102.358 40.9734C102.47 41.1585 102.484 41.7332 102.505 41.9815C101.205 46.6463 98.3251 50.0256 95.9913 54.123Z" fill="#537190"/>
<path d="M42.8381 47.1323C44.7059 47.602 43.0082 50.6315 43.8093 51.2062C44.3432 50.9121 44.5601 49.7388 45.0449 49.5469C45.1601 49.8494 45.1371 49.7306 45.0362 50.0937C45.0259 50.6636 45.0913 50.9805 44.7316 51.3703C44.6259 51.3752 42.1465 51.3547 42.1861 51.3681L42.0877 51.1222C42.7828 49.8467 42.836 48.5347 42.8381 47.1323Z" fill="#458EBC"/>
<path fill-rule="evenodd" clip-rule="evenodd" d="M126.723 15C126.73 16.6611 126.808 19.4248 126.646 20.9873C127.784 20.9488 134.148 20.6623 134.889 20.8506C134.942 20.9737 134.97 21.0101 134.983 21.0908L134.992 21.1914C134.95 22.1198 134.927 22.9278 134.941 23.8564C132.192 23.8941 129.441 24.0189 126.69 24.084C126.706 26.5924 126.826 29.0179 126.858 31.4727C126.093 31.4201 125.019 31.3166 124.278 31.3213L124.262 24.0273C124.367 23.127 124.304 22.1116 124.272 21.1973C124.175 19.4193 124.256 16.8397 124.256 15H126.723Z" fill="#458EBC"/>
<path d="M124.272 21.1973C124.304 22.1117 124.367 23.1269 124.263 24.0272L124.121 23.985C122.712 24.0118 117.516 24.2365 116.562 23.775C116.024 23.1288 116.057 22.1719 115.988 21.3224C118.633 21.3122 121.345 21.1819 124.025 21.1619L124.272 21.1973Z" fill="#458EBC"/>
<path d="M124.272 21.1973C124.304 22.1117 124.367 23.1269 124.263 24.0272L124.121 23.985C123.854 23.1887 123.862 21.9815 124.025 21.1619L124.272 21.1973Z" fill="#65A4C8"/>
<path d="M71.8099 41.5064C71.7435 40.7963 71.9682 38.4776 72.2646 37.832C73.0237 36.1786 74.3434 34.7192 75.3416 33.1669C76.2473 31.7586 77.3942 29.3051 78.389 28.0703C78.5132 28.6262 78.5897 29.611 78.4782 30.1717L78.5549 30.2623C77.6654 32.484 73.3571 39.579 71.8099 41.5064Z" fill="#458EBC"/>
<path d="M78.389 28.0702C78.8612 27.3631 78.8131 26.8609 79.1245 26.0896C79.5738 26.606 79.5702 26.5569 79.5955 27.2491C79.6193 27.9031 78.9027 29.8328 78.5548 30.2621L78.4782 30.1716C78.5897 29.6108 78.5131 28.6261 78.389 28.0702Z" fill="#537190"/>
<path d="M103.19 53.9347C104.321 53.3187 105.489 53.5086 106.612 54.0365C105.293 54.1782 104.494 54.112 103.19 53.9347Z" fill="#455970"/>
<path d="M40.4468 43.6226C41.632 42.9978 42.2038 42.8346 43.423 43.3831C43.0237 43.4912 40.7915 43.7157 40.4468 43.6226Z" fill="#458EBC"/>
<path fill-rule="evenodd" clip-rule="evenodd" d="M110.089 107C110.004 107.524 109.95 107.844 109.935 108.276L109.934 108.759L109.954 109.074C110.034 111.109 109.869 119.682 109.662 120.514L109.754 120.692C109.659 124.189 109.613 127.686 109.617 131.184C109.609 132.975 109.674 135.882 109.505 137.573C109.399 137.751 109.012 144.071 109.143 144.401C108.032 144.495 106.648 144.48 105.525 144.474C96.5904 144.42 87.6438 145.095 78.7175 144.999C78.6546 137.381 78.6343 129.762 78.655 122.144C78.6543 118.326 78.4887 112.757 78.7302 109.063L78.7351 107.623C88.7415 107.707 100.106 107.409 110.089 107ZM106.146 112.588C104.373 112.756 101.629 112.665 99.7761 112.684C94.8744 112.733 89.9928 112.585 85.0935 112.963L85.0984 113.099C85.3906 113.217 85.8414 113.35 86.154 113.452C85.8403 116.003 85.9136 121.728 85.907 124.502C85.7264 127.606 85.9554 131.152 85.8913 134.291C85.8597 135.834 85.9855 137.497 85.7448 139.027C91.2495 139.174 96.5197 139.148 102.014 138.794C102.723 138.748 105.035 138.824 105.568 138.664C105.714 138.167 105.339 137.643 105.311 137.187C105.446 135.595 105.293 132.771 105.334 131.072C105.458 125.866 105.226 120.329 105.467 115.151C105.833 114.693 105.77 113.875 105.79 113.271C106.002 113.572 105.944 113.77 105.973 114.19C106.014 114.08 106.117 112.835 106.146 112.588Z" fill="#5D6062"/>
<path d="M135.598 112.522C131.208 112.701 126.551 112.622 122.193 112.902C122.185 114.536 121.946 119.683 122.092 120.899L122.179 120.973L122.092 120.9C121.743 126.004 122.318 132.247 121.944 137.162C126.494 137.278 131.047 137.313 135.598 137.269V144.096C129.356 144.266 122.808 144.21 116.555 144.197C116.641 136.294 116.677 128.389 116.663 120.485L116.722 120.375C116.59 119.401 116.704 118.039 116.661 117.047C116.528 113.992 116.919 109.432 116.544 106.532C122.553 106.234 129.491 106.424 135.598 106.341V112.522Z" fill="#73818E"/>
<path d="M63.0571 106.987C66.673 107.425 71.0612 107.399 74.6899 107.141C74.4386 114.566 74.5999 122.063 74.5366 129.495C74.5317 130.075 74.514 130.809 74.564 131.382C74.3486 135.519 74.6735 140.067 74.481 144.301V144.302C73.5805 144.642 63.894 144.578 62.4751 144.582L46.2622 144.639L46.1099 144.493C46.0764 142.814 46.0756 140.346 45.8442 138.749L45.9116 138.664C46.2203 138.509 63.7971 137.965 65.7769 137.929C66.8202 137.929 67.654 138.117 68.5796 137.713C68.889 137.316 68.7864 137.323 68.8032 136.707C68.6887 134.855 68.8239 132.757 68.7144 130.854C68.5703 128.491 68.7502 125.75 68.6333 123.283L68.6323 122.974C68.817 121.215 68.7454 116.45 68.7603 114.483C67.7387 114.381 63.6195 114.022 62.9585 113.588L62.8892 113.203C63.1797 112.683 63.0931 107.848 63.0571 106.987ZM48.1216 144.321C47.6132 144.338 47.1711 144.359 46.8257 144.388C47.1711 144.359 47.6132 144.338 48.1216 144.321ZM71.895 144.113C70.8183 144.123 69.7103 144.173 69.1226 144.178V144.179C69.7103 144.174 70.8183 144.123 71.895 144.113Z" fill="#5D6062"/>
</svg>
