<svg width="160" height="160" viewBox="0 0 160 160" fill="none" xmlns="http://www.w3.org/2000/svg">
<path d="M65.5326 115.866C68.5683 115.189 72.6426 115.563 75.7689 115.55C79.7249 115.534 83.7145 115.567 87.6673 115.688C88.4154 115.72 91.6641 115.707 92.2318 115.811C94.7036 115.772 97.4201 115.758 99.8763 115.892C99.176 119.357 98.8532 124.975 96.7621 127.735C93.5927 131.916 90.1405 135.26 84.7972 136.226C80.8437 136.94 76.1236 135.187 72.9486 133.065C69.2143 130.568 66.4756 127.005 65.6927 122.543C65.5086 121.493 65.0567 116.557 65.5326 115.866ZM79.7367 24.4386C87.8468 24.2922 95.9185 26.8061 102.716 31.2267C110.116 36.0392 115.835 44.5097 117.822 53.1134C117.995 53.8638 118.098 54.773 118.355 55.4914C119.096 57.5641 119.774 58.6072 120.013 60.8419C120.402 64.4801 119.649 66.1253 118.541 69.4767C118.199 70.513 118.097 72.4165 117.694 73.6125C116.039 78.5203 113.653 82.6552 110.786 86.9337C109.965 88.16 109.193 89.6302 108.331 90.8312C105.666 94.5472 100.287 103.074 99.3685 107.235C98.1516 107.289 89.0422 107.571 88.263 107.402C82.1657 107.415 76.0565 107.63 69.9583 107.662C69.5954 107.664 69.2326 107.666 68.8705 107.667C68.5083 107.668 68.1463 107.668 67.7845 107.664C67.2417 107.658 66.6988 107.645 66.1556 107.616C65.9748 107.607 65.7936 107.596 65.6126 107.583L64.8246 106.536C62.9631 104.29 61.3289 99.6248 59.4896 97.1544C58.729 96.1327 57.7028 94.715 57.0482 93.6593C54.17 89.0173 50.2149 85.2287 47.6986 80.3771C46.1924 77.1541 44.0219 72.8726 43.7601 69.3253C43.2954 63.0323 42.649 57.0238 44.5208 50.9084C47.0657 42.595 53.3672 33.9874 60.9535 29.8937C61.0853 29.7249 61.8497 29.2766 62.0677 29.1437C63.6906 28.1395 65.4155 27.3172 67.2103 26.6886C67.5692 26.5629 67.9309 26.4442 68.2953 26.3341C68.6596 26.2241 69.0267 26.1217 69.3958 26.0275C69.7649 25.9333 70.1367 25.8479 70.5101 25.7697L71.5414 25.5626C74.0775 25.0639 77.4353 24.4802 79.7367 24.4386ZM28.7367 90.4455C33.3106 87.2967 36.295 86.7321 39.514 91.8556C39.0644 93.7571 38.8605 95.2183 37.2874 96.4835C36.7538 96.9196 35.0653 98.1459 34.4574 98.3273C32.6919 99.5684 29.5384 101.558 26.8226 103C26.5759 103.131 26.3322 103.257 26.0941 103.378C25.3793 103.741 24.7093 104.056 24.1214 104.294C23.9254 104.374 23.7383 104.444 23.5619 104.506C23.2825 104.429 23.0262 104.366 22.7874 104.299C22.1308 104.116 21.6054 103.908 21.0912 103.335L20.9515 103.17C20.5476 102.75 19.7915 102.06 19.4876 101.641C18.7048 100.558 19.6023 97.5541 20.4085 96.7267C22.8158 94.2939 25.9206 92.3842 28.7367 90.4455ZM129.041 87.799C131.58 87.7915 141.314 93.9535 143.216 95.8927C144.073 96.7666 144.415 97.899 144.849 99.0167C144.488 101.084 142.113 102.702 140.499 103.779C137.185 102.711 128.35 97.2971 126.013 94.7638C125.194 93.9964 124.675 93.1195 124.637 91.9806C124.603 90.9479 124.963 90.025 125.675 89.2775C126.514 88.3967 127.82 87.8027 129.041 87.799ZM30.1048 59.7863C31.2673 59.7969 32.1422 59.8216 32.5521 59.8605C32.9426 61.1102 32.9914 61.2913 33.8832 62.3C34.2596 62.4231 34.5509 62.472 34.7533 62.8146C34.8355 63.1992 34.8353 63.6383 34.7689 64.0988C34.7579 64.1753 34.7455 64.2526 34.7308 64.3302C34.7014 64.4861 34.6646 64.6437 34.6214 64.8019C34.5909 64.9139 34.5558 65.0257 34.5189 65.1378C34.3217 65.7372 34.0383 66.333 33.6966 66.8576C33.6515 66.9269 33.605 66.9949 33.558 67.0617C33.1352 67.661 32.6386 68.149 32.1205 68.4142C32.0629 68.4436 32.0046 68.4695 31.9466 68.4933C31.7726 68.5647 31.5968 68.6109 31.4212 68.6261C26.6667 69.0372 21.4912 68.8232 16.6878 68.922C16.2597 68.9308 15.7349 68.9317 15.2064 68.8859C15.03 68.8706 14.8529 68.8506 14.6791 68.8234C14.3318 68.769 13.9963 68.6878 13.7005 68.5685C13.5529 68.5089 13.4149 68.4397 13.2904 68.3595C13.2281 68.3194 13.1689 68.2764 13.1136 68.2306L12.9593 68.0841C12.2847 67.4607 12.0068 67.1897 11.2142 66.7111C11.0486 65.5648 10.9209 64.7128 11.1341 63.5568L11.2074 62.8117C11.3103 62.705 11.3541 62.6487 11.3949 62.6193C11.4221 62.5996 11.4483 62.5922 11.4896 62.589C11.5103 62.5874 11.5352 62.5863 11.5658 62.5861C11.6269 62.5858 11.7123 62.5869 11.8382 62.5812C12.2364 62.1241 12.5775 61.5129 12.888 60.9318L13.1898 60.3673C13.3542 60.3196 13.6387 60.2739 14.0208 60.2316C15.1685 60.1045 17.1983 60.0027 19.5111 59.9279C20.5387 59.8946 21.6224 59.8671 22.7093 59.8449C24.3399 59.8115 25.9783 59.7908 27.4466 59.7834C28.4256 59.7784 29.3294 59.7792 30.1048 59.7863ZM147.966 59.2628L148.135 59.4347L148.195 59.3947C148.426 59.9021 148.669 60.4839 148.978 60.9406C148.902 61.7937 148.53 67.2203 148.348 67.548L148.29 67.4962L148.232 67.9123L146.793 68.008C146.711 68.0013 146.62 67.9964 146.521 67.9923C146.225 67.9801 145.863 67.9783 145.499 67.9806C145.014 67.9837 144.522 67.9939 144.171 67.9943C142.663 68.0209 140.218 68.0731 137.69 68.0578C136.606 68.0512 135.507 68.032 134.459 67.9933C132.365 67.916 130.476 67.7595 129.333 67.466C128.954 67.4117 128.743 67.4172 128.43 67.1974C127.701 65.6348 128.251 61.2286 128.69 59.4806C130.354 59.176 133.661 59.2789 135.525 59.2482L147.177 59.0197L147.966 59.2628ZM81.9603 37.7443C81.2083 37.206 75.687 37.502 74.5003 37.757C73.8867 37.889 74.0404 37.7754 73.5951 38.1613L73.7523 38.2873C72.4594 38.9257 71.3748 38.857 69.7738 39.8439L69.7425 40.0392C68.1805 40.8743 66.7424 41.6563 65.306 42.7707C62.1151 45.2606 59.3914 48.9094 57.8636 52.6876C57.0032 54.8153 56.0444 58.1985 55.6029 60.4669C55.3433 61.8005 55.4996 63.8559 56.349 64.9494C57.6786 66.6608 61.4004 66.6238 63.0599 65.3947C64.684 64.0849 63.7921 61.271 63.8949 59.5314C63.9913 57.9027 65.4153 55.4748 66.1351 54.0294C69.7836 47.2729 74.6592 46.0219 81.6253 44.6056C82.2728 44.4741 84.0255 44.1032 84.4349 43.6203C84.9172 43.0511 84.8275 40.1466 84.8343 39.3097C84.343 38.9896 83.8857 38.6389 83.3119 38.5265C83.6109 38.4917 83.7021 38.5371 83.8792 38.3761C83.5316 38.2942 82.9813 38.13 82.6791 38.0695C82.298 37.9933 81.3976 38.0518 81.0013 37.965L80.9437 37.8556C81.2814 37.8323 81.6236 37.7854 81.9603 37.7443ZM21.6087 24.0128C21.9264 24.1457 22.2458 24.2869 22.5648 24.4357C24.4787 25.3287 26.4038 26.4891 28.182 27.6701C28.4782 27.8668 28.7706 28.0641 29.058 28.2609C29.2446 28.3887 29.435 28.514 29.6283 28.6369C31.1737 29.6191 32.9083 30.4644 34.4349 31.5041C34.7214 31.6992 35.0006 31.9015 35.2699 32.1125C36.2562 32.8854 37.1096 33.7795 37.7005 34.9025C37.79 35.3041 37.8904 35.6401 37.8968 35.9875C37.8994 36.1262 37.8869 36.2668 37.8529 36.4142C37.8358 36.4881 37.8132 36.5638 37.7845 36.6417L37.7113 36.8605C37.6225 37.09 37.4888 37.3489 37.3236 37.6203C37.1032 37.9823 36.8269 38.3667 36.5277 38.7335C35.9296 39.4667 35.2393 40.1297 34.7181 40.4044C33.3423 41.4103 32.6177 41.2185 31.2767 40.2697C27.876 37.8638 18.8336 34.2701 18.0013 29.924C17.7729 29.134 18.1596 27.2691 18.7572 26.6359C19.2575 25.9178 20.3452 25.0759 21.0501 24.4845C21.1526 24.3772 21.4822 23.9609 21.6087 24.0128ZM134.603 25.5334C135.482 25.0029 137.902 23.3358 138.883 23.6515C140.363 24.1293 142.551 26.733 143.174 28.1232C143.336 28.4848 143.392 28.7489 143.251 29.1339C141.885 32.1174 136.957 35.1135 134.262 36.9425C133.82 37.2427 133.392 37.5497 132.967 37.8537C132.436 38.2337 131.911 38.6082 131.368 38.9562C130.607 39.4433 129.812 39.8789 128.922 40.2042C128.045 40.5249 127.523 40.5297 126.825 40.341C126.708 40.3096 126.587 40.2721 126.458 40.2306L126.047 40.0919C125.204 39.9119 124.664 39.5753 123.945 39.1447C123.687 38.3638 122.747 35.1376 122.841 34.5294C123.076 33.022 132.778 26.6336 134.603 25.5334Z" fill="#3B3D3E"/>
</svg>
