<svg width="160" height="160" viewBox="0 0 160 160" fill="none" xmlns="http://www.w3.org/2000/svg">
<path d="M43.3907 51.9063C44.4032 51.6536 47.1244 50.84 47.9991 50.9707L48.1864 51.2796C48.0067 52.9938 48.016 56.7638 48.2614 58.4254L48.4745 58.8855C47.6607 59.3756 47.2244 59.4558 46.2727 59.5336L46.191 59.6365C46.0865 59.8879 45.7502 60.6495 45.538 60.7766C44.2136 61.5699 44.658 62.1905 44.487 63.5412C44.4371 67.7884 44.7711 73.0319 44.8726 77.3739C45.1329 87.7227 45.2741 98.0742 45.2961 108.426C46.4864 108.414 47.8873 108.365 49.061 108.415C49.9189 108.393 50.2175 108.323 51.0361 108.136C51.0858 111.52 51.1852 115.049 51.1218 118.418C50.5324 118.409 46.9636 118.472 46.6653 118.267L44.7577 118.223C42.549 118.398 38.6644 118.221 36.223 118.273C35.4511 118.313 34.0591 118.228 33.2429 118.202L32 56.6943C32.9605 56.2379 33.8244 55.8447 34.8073 55.4402C37.8788 54.2956 39.847 52.8231 43.3907 51.9063Z" fill="#6E7982"/>
<path d="M32 56.6943C32.9605 56.2379 33.8244 55.8447 34.8073 55.4402C34.6439 56.419 34.7795 57.3567 34.8962 58.3354C35.1532 60.4873 35.2539 62.6232 35.3157 64.789L35.6793 83.2518C35.7939 87.4426 37.231 116.572 36.223 118.273C35.4511 118.313 34.0591 118.228 33.2429 118.202L32 56.6943Z" fill="#929597"/>
<path d="M49.061 108.415C49.919 108.393 50.2175 108.323 51.0362 108.136C51.0858 111.52 51.1852 115.05 51.1218 118.418C50.5324 118.409 46.9636 118.472 46.6653 118.267L44.7577 118.223C44.635 117.997 45.1032 113.758 45.1599 113.143C45.0992 112.003 45.183 109.98 45.1999 108.776C45.5768 109.002 45.7852 108.95 46.2151 108.92C47.6456 108.693 48.0725 108.659 49.0558 109.764L49.0242 108.535L49.061 108.415Z" fill="#854252"/>
<path d="M49.0608 108.415C49.9188 108.393 50.2174 108.323 51.036 108.136C51.0857 111.52 51.185 115.05 51.1217 118.418C50.5323 118.409 46.9635 118.472 46.6652 118.267C47.5914 118.228 48.6111 118.249 49.5461 118.252C49.1812 116.379 49.286 114.023 49.1903 112.1C49.157 111.428 49.2087 110.388 49.0557 109.764L49.024 108.535L49.0608 108.415Z" fill="#AAAEAA"/>
<path d="M45.1998 108.776C45.5767 109.002 45.7851 108.95 46.215 108.919L47.2528 108.974C47.4386 109.696 46.9508 109.99 46.8156 110.902C46.5431 112.741 46.9941 116.056 46.366 117.604C46.0465 117.891 45.986 117.896 45.5553 117.945L45.2412 117.801C45.0913 117.343 45.3269 114.154 45.1598 113.143C45.0991 112.003 45.1829 109.98 45.1998 108.776Z" fill="#955664"/>
<path d="M43.3905 51.9063C44.4031 51.6536 47.1242 50.84 47.999 50.9707L48.1862 51.2796C48.0065 52.9938 48.0158 56.7638 48.2613 58.4254L48.4743 58.8855C47.6605 59.3756 47.2243 59.4558 46.2725 59.5336C45.1783 59.4785 44.7092 59.8161 43.9228 59.0701L43.3726 58.4265L44.1293 57.9445C43.8749 57.2848 43.901 57.1325 43.9677 56.4181L44.8436 56.4618C44.6955 55.3885 44.4762 54.3264 44.187 53.2825C44.1615 53.2459 43.7618 52.3811 43.6972 52.2508L43.3905 51.9063Z" fill="#854252"/>
<path d="M44.187 53.2827L44.3101 53.0809L44.2025 52.6766C44.4642 52.4458 44.4995 52.4126 44.8438 52.3762C45.0657 52.5683 45.0642 52.5523 45.1312 52.8331C47.3991 53.6802 46.4455 54.5996 46.7139 56.4484C46.2278 56.455 45.2931 56.4969 44.8436 56.4619C44.6956 55.3887 44.4763 54.3266 44.187 53.2827Z" fill="#955664"/>
<path d="M43.3907 51.9063C44.4033 51.6536 47.1245 50.84 47.9992 50.9707L48.1865 51.2796C46.8161 51.6686 45.0959 52.1693 43.6974 52.2508L43.3907 51.9063Z" fill="#643641"/>
<path d="M44.1293 57.9446C44.7008 58.0503 44.7445 57.9625 45.1016 58.2987C44.903 58.8322 44.4364 58.9142 43.9228 59.0702L43.3726 58.4266L44.1293 57.9446Z" fill="#955664"/>
<path d="M44.2646 59.6446C44.879 59.673 45.5706 59.6463 46.1911 59.6365C46.0866 59.8879 45.7503 60.6494 45.5381 60.7765C44.2137 61.5698 44.658 62.1905 44.4871 63.5412C44.364 62.7222 44.3551 60.6654 44.2646 59.6446Z" fill="#AAAEAA"/>
<path d="M45.1997 108.776C45.6914 108.36 48.207 108.523 49.024 108.535L49.0557 109.764C48.0723 108.659 47.6454 108.693 46.2149 108.919C45.785 108.95 45.5766 109.002 45.1997 108.776Z" fill="#381C30"/>
<path d="M43.3727 58.4266C43.1941 57.9794 42.9916 57.2111 43.1815 56.7509C43.5407 56.4092 43.4184 56.5089 43.9679 56.4182C43.9012 57.1326 43.875 57.2849 44.1295 57.9446L43.3727 58.4266Z" fill="#725168"/>
<path d="M110.245 52.5647C111.039 53.1787 113.437 54.0351 114.492 54.5263C115.477 54.9847 117.014 55.7987 117.968 56.1895L118.682 89.4628L118.894 99.9719C118.914 101.073 119.037 104.141 118.958 105.063L118.998 105.605L119.096 112.721C119.107 113.518 119.087 115.584 119.192 116.297L119.09 116.658C118.317 116.989 111.402 117.037 110.125 117.053C109.273 117.195 104.087 117.454 103.221 116.925C102.938 116.778 102.66 116.338 102.643 116.004C102.519 113.52 103.097 110.367 102.488 107.921L102.459 107.806C102.919 107.781 103.704 107.713 104.139 107.73C104.811 107.761 105.398 107.763 106.066 107.755C106.518 107.864 106.98 107.91 107.274 108.249C107.428 108.858 107.076 109.187 107.183 109.833C107.877 109.634 108.262 109.88 108.716 110.438C108.858 109.958 109.044 109.334 109.626 109.421C109.927 109.853 109.828 109.934 109.858 110.555C109.927 110.259 109.991 109.803 110.044 109.491C109.753 108.465 110.303 108.454 109.808 107.805C108.746 107.678 107.537 107.506 106.483 107.459L106.033 107.266L106.121 107.212C106.473 106.763 106.299 103.166 106.294 102.358C106.287 99.501 106.264 96.6441 106.226 93.7874C106.15 86.3056 106.027 78.8244 105.857 71.3441C105.777 68.5325 105.298 62.7255 105.52 60.1783L105.698 60.4556C106.077 60.5312 106.343 60.4127 106.708 60.2998C107.428 59.4671 108.056 59.3027 109.065 59.0097C109.355 57.4005 109.069 54.8582 109.449 52.7401C109.958 52.8307 109.746 52.8638 110.245 52.5647Z" fill="#69737B"/>
<path d="M109.065 59.0098C109.033 60.244 109.082 61.8848 109.023 63.0321C109.073 72.3135 109.228 81.5939 109.486 90.8719C109.595 96.4733 109.597 102.224 109.808 107.805C108.746 107.678 107.537 107.506 106.483 107.459L106.033 107.266L106.121 107.212C106.473 106.764 106.299 103.166 106.294 102.358C106.287 99.5011 106.264 96.6442 106.226 93.7875C106.15 86.3057 106.027 78.8245 105.857 71.3442C105.777 68.5326 105.298 62.7256 105.52 60.1784L105.698 60.4557C106.077 60.5313 106.343 60.4128 106.708 60.2999C107.428 59.4672 108.056 59.3028 109.065 59.0098Z" fill="#929597"/>
<path d="M109.065 59.0098C109.033 60.244 109.082 61.8848 109.023 63.0321L108.865 60.9603C107.986 60.4411 107.688 60.4578 106.708 60.2999C107.427 59.4672 108.056 59.3028 109.065 59.0098Z" fill="#928A89"/>
<path d="M102.459 107.806C102.919 107.781 103.704 107.714 104.139 107.73C104.811 107.761 105.398 107.763 106.066 107.756C106.518 107.864 106.98 107.91 107.274 108.25C107.428 108.858 107.076 109.187 107.183 109.833C107.877 109.634 108.262 109.88 108.716 110.438C108.858 109.959 109.044 109.334 109.626 109.421C109.927 109.853 109.828 109.934 109.858 110.555C109.813 111.751 109.684 113.257 109.955 114.385C110.204 114.627 110.264 114.615 110.622 114.687C110.97 114.802 110.85 114.737 111.081 115.146C112.156 115.219 118.389 115.456 118.894 115.584C119 115.823 119.106 116.049 119.192 116.297L119.09 116.658C118.317 116.989 111.402 117.037 110.125 117.053C109.273 117.195 104.087 117.454 103.221 116.925C102.938 116.778 102.66 116.338 102.643 116.004C102.519 113.52 103.097 110.367 102.488 107.921L102.459 107.806Z" fill="#955664"/>
<path d="M105.225 115.022C107.117 115.052 109.215 115.151 111.08 115.145C112.156 115.219 118.389 115.456 118.894 115.584C119 115.823 119.105 116.049 119.192 116.297L119.09 116.658C118.317 116.989 111.402 117.037 110.124 117.053C108.552 116.893 103.722 117.467 102.953 116.141L103.058 115.78C103.372 115.348 103.89 115.269 104.409 115.123L105.225 115.022Z" fill="#643641"/>
<path d="M108.716 110.438C108.858 109.958 109.044 109.334 109.626 109.421C109.927 109.853 109.828 109.934 109.858 110.555C109.812 111.75 109.684 113.257 109.955 114.385C110.204 114.627 110.263 114.614 110.621 114.687C110.97 114.802 110.85 114.737 111.08 115.146C109.215 115.152 107.117 115.052 105.225 115.022L105.255 114.541C105.69 114.685 106.13 114.557 106.59 114.476L106.333 114.319C106.437 113.439 106.554 113.269 107.027 112.513C107.199 111.6 107.176 110.759 107.183 109.833C107.877 109.634 108.262 109.88 108.716 110.438Z" fill="#725168"/>
<path d="M108.716 110.438C108.858 109.958 109.044 109.334 109.626 109.421C109.927 109.853 109.828 109.934 109.858 110.555C109.812 111.75 109.684 113.257 109.955 114.385C110.204 114.627 110.263 114.614 110.621 114.687C110.97 114.802 110.85 114.737 111.08 115.146C109.215 115.152 107.117 115.052 105.225 115.022L105.255 114.541C105.69 114.685 106.13 114.557 106.59 114.476C107.033 114.589 108.362 114.541 108.898 114.536C109.065 112.989 109.17 111.956 108.716 110.438Z" fill="#9A7376"/>
<path d="M104.139 107.73C104.811 107.761 105.397 107.763 106.066 107.755C106.518 107.864 106.98 107.91 107.274 108.249C107.427 108.858 107.076 109.187 107.183 109.833C107.176 110.759 107.199 111.6 107.027 112.513C106.554 113.269 106.437 113.439 106.333 114.319L106.59 114.476C106.13 114.557 105.69 114.685 105.255 114.541C105.394 114.044 105.492 113.341 105.581 112.817C105.633 111.388 105.649 109.609 104.887 108.355C104.588 107.864 104.651 107.97 104.129 107.812L104.139 107.73Z" fill="#955664"/>
<path d="M106.381 108.996C106.605 109.875 106.681 112.182 106.889 112.467L107.027 112.513C106.554 113.269 106.437 113.439 106.333 114.319L106.59 114.476C106.13 114.557 105.69 114.685 105.255 114.541C105.394 114.044 105.492 113.341 105.581 112.818L105.875 112.055C106.02 111.25 106.211 109.68 106.381 108.996Z" fill="#836172"/>
<path d="M105.875 112.055C105.945 112.705 106.104 113.624 106.132 114.224L106.333 114.319L106.59 114.476C106.13 114.557 105.69 114.685 105.255 114.541C105.394 114.044 105.492 113.341 105.581 112.817L105.875 112.055Z" fill="#8F6A6E"/>
<path d="M104.409 115.123L104.354 114.964C104.732 113.559 104.742 111.277 104.532 109.814C104.489 109.517 103.782 108.44 103.741 107.923L104.129 107.812C104.651 107.97 104.588 107.864 104.887 108.355C105.649 109.609 105.633 111.388 105.581 112.818C105.492 113.341 105.394 114.044 105.255 114.541L105.225 115.022L104.409 115.123Z" fill="#9A7376"/>
<path d="M110.044 109.491C110.85 110.009 110.828 110.086 111.056 111.035C111.294 112.023 111.366 113.353 111.113 114.349C110.904 114.564 110.895 114.571 110.621 114.687C110.263 114.614 110.204 114.627 109.955 114.384C109.684 113.256 109.812 111.75 109.858 110.555C109.927 110.259 109.991 109.803 110.044 109.491Z" fill="#5A576D"/>
<path d="M70.7197 62.1184C71.7836 61.251 72.1209 56.8933 74.9336 57.2977C77.7925 57.7087 80.8327 60.8999 82.6381 63.0269C84.4319 65.14 85.0309 66.2778 82.0726 66.8638C81.0327 64.2957 78.8372 64.8373 76.4365 64.4305C76.3806 65.287 76.405 66.0783 76.3639 66.9051C76.4682 71.6797 76.5608 75.9079 76.9633 80.6671C79.4877 80.4638 79.8314 80.0661 81.7174 78.4361C82.9246 77.3926 83.7325 77.9764 84.5229 79.1042C83.4405 81.7555 82.6983 82.3071 80.7948 84.5123C79.6078 85.8874 77.7204 87.9797 75.7622 88.0423C72.2858 87.7962 70.1745 83.1851 68.0555 80.8986C67.4324 80.2263 66.038 80.043 66.0386 79.2028C66.3917 78.7065 67.1936 78.6956 67.7507 78.6454C69.7172 78.4682 69.7927 79.0805 70.7711 80.4782C72.1816 80.727 73.091 80.6235 74.5095 80.4943C74.725 76.3776 74.8923 68.6817 74.0877 64.7388C73.0741 64.2323 72.8139 64.1573 71.7442 63.8884C68.8658 65.3153 70.0871 67.0197 66.2169 65.9942C67.2195 64.7494 69.2302 62.6857 70.7197 62.1184Z" fill="#4E8FB3"/>
<path d="M74.9697 62.8347C75.0895 61.5635 75.2173 59.5328 75.9602 58.4925L76.2287 58.3877C76.5969 58.6427 76.7125 59.1324 76.7968 59.5474C77.0453 60.7696 76.7199 62.0102 76.5141 63.2108C76.4465 63.6055 76.5287 64.0005 76.4366 64.4307C76.3807 65.2872 76.4052 66.0785 76.3641 66.9052C76.2369 66.3776 76.234 64.9334 76.218 64.3118C75.5789 63.8312 75.1861 63.5963 74.9697 62.8347Z" fill="#5DA1C2"/>
<path d="M78.2066 92.2689C81.7021 92.2039 85.1981 92.18 88.694 92.1969C88.6801 93.2353 88.7141 94.3273 88.7311 95.3699C83.5523 95.4666 78.3724 95.47 73.1936 95.3803C69.7263 95.3781 66.1882 95.4112 62.7338 95.1497C62.5945 94.2038 62.5698 93.4525 62.5321 92.4969C67.7559 92.3568 72.9811 92.2807 78.2066 92.2689Z" fill="#4E8FB3"/>
<path d="M61.7274 50.7674C70.6305 50.7716 79.5884 50.508 88.5041 50.5056C87.8755 51.7046 88.036 52.807 86.5101 53.0761C83.5055 53.3754 78.5805 53.2535 75.3985 53.3185C71.6281 53.3955 65.4826 53.7227 61.8147 53.3507C61.7779 52.4898 61.7488 51.6287 61.7274 50.7674Z" fill="#357AA1"/>
<path d="M101.24 51.0179L101.329 50.6924C102.543 50.3949 108.795 51.6155 109.821 52.2506C109.97 52.3433 110.113 52.4483 110.245 52.5647C109.746 52.8638 109.957 52.8307 109.448 52.7401C109.069 54.8582 109.355 57.4005 109.065 59.0097C108.056 59.3027 107.428 59.4671 106.708 60.2998C106.343 60.4127 106.077 60.5312 105.698 60.4556L105.519 60.1783C105.366 58.0796 102.194 59.3118 100.943 58.6775C100.468 57.8063 101.362 57.3813 101.442 56.0628C101.549 54.295 101.255 52.7541 101.24 51.0179Z" fill="#8F6A6E"/>
<path d="M101.239 51.0179L101.329 50.6924C102.543 50.3949 108.795 51.6155 109.82 52.2506C109.97 52.3433 110.112 52.4483 110.245 52.5647C109.746 52.8638 109.957 52.8307 109.448 52.7401C108.918 52.1693 102.541 51.2633 101.239 51.0179Z" fill="#292B39"/>
<path d="M92.5902 104.955L94.2681 105.109C94.7247 109.845 95.042 115.244 95.2615 119.999C94.2725 120.084 93.8233 120.036 92.8867 119.831C91.7511 118.678 91.0727 117.213 90.106 116.067C87.4061 112.865 86.5143 111.106 85.451 107.069L85.9409 106.573C87.8511 108.406 89.8726 111.482 91.4242 113.698C92.541 114.206 92.3347 115.739 93.1405 116.038C93.2938 115.469 92.8988 114.831 92.8353 114.253C92.7456 113.435 92.8008 112.662 92.8579 111.846C92.7399 109.55 92.6507 107.253 92.5902 104.955Z" fill="#4E8FB3"/>
<path d="M92.858 111.846C93.0062 112.916 93.8013 117.461 93.4906 118.21C92.9514 117.805 92.596 115.896 92.2609 115.204C91.9902 114.646 91.7562 114.23 91.4243 113.698C92.5411 114.206 92.3349 115.739 93.1406 116.038C93.2939 115.469 92.8989 114.831 92.8354 114.253C92.7458 113.435 92.8009 112.662 92.858 111.846Z" fill="#AAAEAA"/>
<path d="M76.3303 105.89C77.1617 105.85 77.6975 105.86 78.5289 105.907C78.8612 105.913 79.5901 106.01 79.6739 106.219C80.6672 108.697 80.5082 117.694 80.2929 119.957C80.2782 120.114 80.2613 120.271 80.242 120.428C80.0925 120.199 80.0823 120.181 79.8499 120.037L79.4264 119.776C78.9324 119.895 78.384 120.014 77.8988 120.146L77.5215 120.5C77.3328 120.504 77.1053 120.495 76.9131 120.493C76.7071 120.073 77.0929 118.004 77.0373 117.286C76.905 115.581 76.7314 113.86 76.6015 112.157C76.4629 110.07 76.3724 107.981 76.3303 105.89Z" fill="#A2BDC9"/>
<path d="M76.3303 105.89C77.1617 105.85 77.6975 105.86 78.5289 105.907C77.9824 105.978 77.4372 106.059 76.8934 106.149C77.3579 106.2 77.7506 106.227 78.2177 106.249C78.0593 106.438 77.8003 106.75 77.795 107C77.7504 109.126 77.9407 111.275 77.9872 113.401C78.0366 115.656 78.2128 117.902 77.8988 120.146L77.5215 120.5C77.3328 120.504 77.1053 120.495 76.9131 120.493C76.7071 120.073 77.0929 118.004 77.0373 117.286C76.905 115.581 76.7314 113.86 76.6015 112.157C76.4629 110.07 76.3724 107.981 76.3303 105.89Z" fill="#356C9C"/>
<path d="M78.5289 105.907C78.8612 105.913 79.5901 106.01 79.6739 106.219C80.6672 108.698 80.5082 117.694 80.2929 119.957C80.2782 120.115 80.2613 120.272 80.242 120.428C80.0925 120.2 80.0823 120.182 79.8498 120.037L79.4264 119.776C80.4346 118.459 79.7795 108.617 79.166 106.702C79.0809 106.436 78.4601 106.323 78.2177 106.249C77.7506 106.227 77.3579 106.201 76.8934 106.149C77.4372 106.059 77.9824 105.979 78.5289 105.907Z" fill="#6E7982"/>
<path d="M68.4806 111.034C70.5517 108.379 69.3804 107.48 70.1401 106.156C70.5956 105.883 70.5918 105.987 71.2278 106.026C73.0977 106.598 72.8791 109.706 72.9414 111.33C73.0523 114.216 73.0628 117.102 72.8241 119.983C72.3956 120.078 71.7737 120.244 71.354 120.224C70.8355 120.24 70.1917 120.314 69.7831 119.997C69.6224 119.251 69.8577 112.877 69.9449 111.814C70.0093 111.727 70.1354 111.401 70.1858 111.281L70.1983 110.677C69.199 110.767 69.6277 110.108 68.8101 111.065C68.5931 111.084 68.6579 111.111 68.4806 111.034Z" fill="#A2BDC9"/>
<path d="M71.2276 106.026C73.0975 106.598 72.8789 109.706 72.9412 111.33C73.0521 114.216 73.0625 117.102 72.8239 119.983C72.3954 120.077 71.7735 120.244 71.3538 120.224L71.0079 119.709C71.2401 119.438 71.8607 118.738 71.9185 118.392C72.5106 114.841 72.5436 110.859 72.1307 107.275C72.0664 106.717 71.6012 106.542 71.2252 106.355L71.2276 106.026Z" fill="#6E7982"/>
<path d="M68.4806 111.034C70.5517 108.379 69.3804 107.48 70.1401 106.156C70.5956 105.883 70.5918 105.987 71.2278 106.026L71.2254 106.355C70.868 107.136 70.4252 109.686 70.1983 110.677C69.199 110.767 69.6277 110.108 68.8101 111.065C68.5931 111.084 68.6579 111.111 68.4806 111.034Z" fill="#356C9C"/>
<path d="M70.1855 111.281C70.5004 113.778 70.3434 116.253 70.2271 118.755C70.2131 119.056 70.1414 119.521 70.2733 119.779C70.6195 119.831 70.6606 119.802 71.0079 119.709L71.3537 120.224C70.8352 120.24 70.1915 120.314 69.7828 119.997C69.6221 119.251 69.8575 112.877 69.9446 111.814C70.009 111.727 70.1352 111.401 70.1855 111.281Z" fill="#356C9C"/>
<path d="M59.4147 108.339C59.3098 107.681 59.0523 106.695 59.3033 106.135C59.678 105.865 59.6448 105.963 60.2291 106.002C60.7126 105.978 61.0441 105.911 61.4466 106.171C62.571 106.877 62.4819 108.305 62.8721 109.564C63.1643 110.507 63.8879 112.215 63.977 113.094L63.8301 113.121C63.361 113.241 62.0694 113.739 61.7177 113.453L61.2861 113.211L61.0556 113.287C60.8591 113.732 61.0312 114.197 61.0022 114.697C61.5643 117.301 61.2672 116.839 61.2288 119.169C60.9195 119.314 60.6985 119.872 60.5256 120.207C60.1711 120.186 60.1282 120.202 59.8462 120.011C60.1196 117.084 59.4939 111.505 59.4147 108.339Z" fill="#A2BDC9"/>
<path d="M59.4147 108.339C59.3098 107.681 59.0523 106.695 59.3033 106.135C59.678 105.865 59.6448 105.963 60.2291 106.002L59.8304 106.43C59.9984 107.867 60.5382 113.549 61.0022 114.697C61.5643 117.301 61.2672 116.839 61.2288 119.169C60.9195 119.314 60.6985 119.872 60.5256 120.207C60.1711 120.186 60.1282 120.202 59.8462 120.011C60.1196 117.084 59.4939 111.505 59.4147 108.339Z" fill="#4E8FB3"/>
<path d="M59.4147 108.339C59.3098 107.681 59.0523 106.695 59.3033 106.135C59.678 105.865 59.6448 105.963 60.2291 106.002L59.8304 106.43C59.7215 107.214 59.5668 107.601 59.4147 108.339Z" fill="#357AA1"/>
<path d="M61.4465 106.171C62.5709 106.877 62.4818 108.305 62.872 109.564C63.1642 110.507 63.8878 112.215 63.9769 113.094L63.83 113.121C63.3609 113.241 62.0693 113.739 61.7176 113.453C61.852 110.68 61.6245 108.892 61.4465 106.171Z" fill="#357AA1"/>
<path d="M123.952 29.6345C124.516 29.3824 125.446 29.5106 125.974 29.8602L126.249 30.4526C126.264 30.8339 126.256 31.7589 126.404 32.052C126.488 32.6005 126.467 34.2326 126.477 34.9156C126.491 36.4381 126.548 37.9602 126.649 39.4795C125.784 39.4867 124.69 39.3757 123.809 39.3085C123.918 36.7344 123.914 34.3842 123.89 31.8093L123.952 29.6345Z" fill="#609EB1"/>
<path d="M126.826 29.3233C129.022 29.1888 131.869 28.9924 134.039 28.9741C134.05 29.8606 134.07 30.7441 134.032 31.6298C131.486 31.6572 128.899 32.039 126.404 32.0521C126.255 31.7589 126.264 30.8339 126.249 30.4526C126.219 29.6782 126.083 29.572 126.826 29.3233Z" fill="#4E8FB3"/>
<path d="M123.925 21.0514C124.739 20.9781 125.384 20.9993 126.196 21.0178C126.184 22.3151 126.024 28.2509 126.435 29.2021L126.826 29.3232C126.083 29.5719 126.219 29.6782 126.249 30.4526L125.974 29.8602C125.446 29.5106 124.516 29.3824 123.952 29.6344C123.499 29.3685 121.294 29.484 120.594 29.4797C121.47 29.3825 122.996 29.4222 123.926 29.421C123.875 26.6727 123.92 23.8082 123.925 21.0514Z" fill="#5DA1C2"/>
<path d="M68.4804 111.034C68.6577 111.111 68.5929 111.084 68.8099 111.065C69.6275 110.108 69.1988 110.767 70.1981 110.677L70.1856 111.281C70.1352 111.401 70.0091 111.726 69.9447 111.814L69.7873 111.609C69.2575 111.822 67.9651 114.044 67.6903 114.71C67.3316 115.579 67.1256 116.494 66.9795 117.422C62.5485 118.459 65.1471 115.492 64.0515 113.277L63.8298 113.121L63.9767 113.094C64.4765 113.041 64.9986 113.611 65.3702 113.93C66.5016 113.266 67.5725 112.011 68.4804 111.034Z" fill="#357AA1"/>
<path d="M123.89 31.8091C122.278 31.7777 117.178 31.7781 115.932 31.3884C115.626 31.1019 115.646 31.1301 115.62 30.6964C115.581 30.0621 115.741 29.9918 116.3 29.8874C117.753 29.6163 119.117 29.5038 120.593 29.4796C121.294 29.4839 123.499 29.3684 123.952 29.6343L123.89 31.8091Z" fill="#4E8FB3"/>
<path d="M83.9448 115.112C83.7804 113.809 83.7444 107.071 83.8471 105.696C84.1886 105.484 84.0965 105.553 84.6113 105.669L84.6979 106.396C84.5874 108.086 84.7101 111.71 84.9447 113.373C85.1581 114.421 85.329 115.064 85.6549 116.084C85.6237 116.253 85.5681 116.614 85.5228 116.761C84.976 117.401 85.1307 118.019 84.8488 118.911C84.5311 118.732 84.2317 118.484 83.9407 118.26L83.9448 115.112Z" fill="#356C9C"/>
<path d="M84.9445 113.373C85.1579 114.421 85.3288 115.064 85.6548 116.084C85.6235 116.253 85.5679 116.613 85.5226 116.761C84.9758 117.401 85.1305 118.018 84.8486 118.911C84.5309 118.732 84.2315 118.483 83.9406 118.26L83.9447 115.111C84.0411 115.416 84.1349 115.723 84.2422 116.024L84.3551 116.043L84.2155 115.952L84.3625 115.907C84.3482 115.315 84.4654 113.751 84.9445 113.373Z" fill="#357AA1"/>
<path d="M106.482 107.459C107.537 107.506 108.746 107.678 109.808 107.805C110.303 108.454 109.753 108.466 110.044 109.491C109.991 109.803 109.927 110.259 109.857 110.555C109.828 109.934 109.927 109.853 109.626 109.421C109.044 109.334 108.857 109.959 108.716 110.438C108.261 109.88 107.877 109.634 107.183 109.833C107.076 109.187 107.427 108.858 107.273 108.249C106.98 107.91 106.518 107.864 106.066 107.756L106.482 107.459Z" fill="#836172"/>
<path d="M85.6549 116.084C86.0944 117.16 86.9774 119.096 86.6285 120.245C86.4805 120.327 86.3854 120.398 86.2173 120.408C85.6669 120.44 85.0639 120.488 84.5181 120.503C84.7794 119.977 84.6535 120.05 85.0991 119.762L84.855 119.666C84.6793 119.33 84.7545 119.351 84.8488 118.911C85.1307 118.019 84.976 117.401 85.5228 116.761C85.5681 116.614 85.6237 116.253 85.6549 116.084Z" fill="#356C9C"/>
<path d="M85.5229 116.761C85.9274 117.854 86.0741 118.46 85.8998 119.662L85.0992 119.762L84.8551 119.666C84.6794 119.33 84.7546 119.351 84.8489 118.911C85.1308 118.019 84.9761 117.401 85.5229 116.761Z" fill="#AAAEAA"/>
<path d="M61.2286 119.169C61.5386 118.902 61.8275 118.576 62.2247 118.57C62.5804 118.947 62.5129 119.554 62.5289 120.118C61.8616 120.162 61.1937 120.217 60.5254 120.207C60.6983 119.872 60.9193 119.314 61.2286 119.169Z" fill="#6E7982"/>
<path d="M50.6824 56.2912L50.7003 53.6816L50.7497 53.6582C50.8653 54.8102 51.0038 55.8752 50.9334 57.0368C50.1469 57.8029 49.3934 58.2912 48.4745 58.8854L48.2615 58.4254C49.2731 58.1619 50.111 57.1125 50.6824 56.2912Z" fill="#928A89"/>
<path d="M102.459 107.806C102.456 107.619 102.481 107.501 102.506 107.317C103.109 106.959 105.228 107.208 106.033 107.266L106.482 107.459L106.066 107.755C105.397 107.763 104.811 107.76 104.139 107.73C103.704 107.713 102.918 107.781 102.459 107.806Z" fill="#725168"/>
<path d="M83.9407 118.26C84.2317 118.484 84.5311 118.732 84.8488 118.911C84.7545 119.351 84.6793 119.33 84.855 119.666L85.0991 119.762C84.6535 120.05 84.7794 119.977 84.518 120.503C84.2499 120.511 84.2324 120.493 83.9802 120.384C83.7299 119.851 83.8909 118.893 83.9407 118.26Z" fill="#6E7982"/>
<path d="M77.8988 120.146C78.384 120.014 78.9324 119.895 79.4264 119.776L79.8498 120.037C80.0822 120.181 80.0925 120.2 80.242 120.428C79.3653 120.565 78.3983 120.674 77.5215 120.5L77.8988 120.146Z" fill="#356C9C"/>
<path d="M84.6111 105.669C84.9896 105.923 85.6003 106.304 85.9407 106.573L85.4509 107.069C85.2163 106.789 84.9815 106.622 84.6977 106.396L84.6111 105.669Z" fill="#357AA1"/>
</svg>
