<svg width="160" height="160" viewBox="0 0 160 160" fill="none" xmlns="http://www.w3.org/2000/svg">
<path fill-rule="evenodd" clip-rule="evenodd" d="M39.3262 82.0322C41.0405 81.8575 43.4056 82.0875 45.0869 82.4648L45.0947 82.4638C45.5741 83.4956 45.9317 83.1781 46.168 83.8994L46.0166 84.1045C44.9943 84.4026 44.0446 83.5105 43.5166 83.4091C41.351 82.9937 38.8766 83.6213 37.0186 84.6757C36.4624 85.8505 36.4056 86.4831 36.2197 87.75C40.2832 88.503 41.3607 87.4292 45.209 89.2138C48.5249 93.7066 42.3359 96.5089 38.5986 96.7939C36.5254 96.8399 33.1072 96.5383 33.4443 93.6484L33.6484 93.5088C34.8342 93.7391 35.8853 94.7652 37.5518 94.9873C39.2571 95.332 40.6643 94.7591 42.0576 93.7988C42.9722 93.1686 44.9771 91.6228 44.0576 90.3418C42.1101 89.2547 38.9791 92.5124 34.7334 89.1103C32.8564 84.5229 34.5612 82.3373 39.3262 82.0322ZM52.0771 82.0312C52.3801 82.0974 52.7146 82.31 53.0889 82.7216C53.1256 83.8203 53.1628 84.5292 53.0244 85.6142L52.8838 86.3037C52.9415 86.3731 52.9682 86.4137 52.999 86.4482C53.03 86.4828 53.0645 86.5121 53.1377 86.5595C53.6031 85.9933 53.7461 85.7716 54.5527 85.7627C55.1315 85.7563 56.6295 85.5754 57.6777 85.7627C57.7823 85.7813 57.8823 85.8035 57.9766 85.83C58.449 85.9631 58.775 86.2019 58.7832 86.6142C57.6518 86.8321 52.8717 86.6585 52.5615 88.2109C52.2575 89.4036 52.0343 94.0485 52.3271 95.2021L52.4854 95.3984L52.6045 95.3877C54.3086 95.2183 55.2383 93.5622 56.4668 93.6933C57.0208 94.144 56.9822 95.1145 56.6367 95.6582C55.7569 96.4098 53.5296 96.344 52.1367 96.2002L51.5967 96.1357C50.04 95.521 50.4998 93.2259 50.5615 91.8144C50.4866 91.1226 50.5752 89.9357 50.5215 89.083C49.5385 88.1214 48.3984 88.2379 48.4639 86.6054C48.7159 85.8864 48.7638 85.7179 49.2402 85.1357C49.9822 84.2782 50.6532 82.1143 51.7842 82.0117C51.8785 82.0031 51.9761 82.0091 52.0771 82.0312ZM60.3916 86.4619C60.8848 84.1663 66.2017 85.2183 67.8174 85.5039L68.1914 85.542C69.1015 85.8393 69.6708 86.3477 70.0322 86.9843C70.098 87.1001 70.1572 87.22 70.21 87.3437C70.7114 88.5194 70.6644 90.0334 70.7549 91.458C70.8275 92.6024 70.7548 95.3097 69.6504 95.9062C69.582 95.9409 69.4837 95.9682 69.3701 95.9892C69.0298 96.0524 68.5498 96.0624 68.3096 96.0664L68.1992 95.9609C67.9262 95.7187 67.5449 95.5029 67.2441 95.3134C65.92 96.2966 63.566 96.465 62.0088 95.9384C61.6068 95.8026 61.4729 95.2948 61.3652 94.9209L61.0684 94.3281C60.8259 93.8296 60.7324 93.5317 60.6543 92.7246L60.4463 92.6679C59.8077 93.1495 60.2794 93.2757 59.6191 94.0947L59.4346 94.0507C59.1282 93.3524 59.1649 92.7037 59.1455 91.9453C62.0761 89.5122 62.9526 88.8714 66.8682 88.958C66.9895 88.3747 66.8582 87.4809 66.792 86.8691C65.5621 85.4994 61.1411 87.8529 60.3916 86.4619ZM106.802 85.5166C107.618 84.409 111.225 84.4562 112.536 84.5381C112.537 84.6596 112.508 84.9138 112.48 85.1474L112.52 84.8007C112.53 84.6928 112.537 84.5988 112.536 84.5381C113.749 84.6245 114.055 84.7416 115.107 85.3506L116.054 85.998L115.753 88.2558C115.537 88.926 115.616 89.7918 115.634 90.5117C115.864 91.5661 115.98 92.9533 116.101 94.0517C115.575 94.5876 115.42 94.7693 114.728 94.9882L114.625 95.0215C113.804 95.2801 111.658 95.4094 110.754 95.3916C109.579 95.6313 108.072 95.3564 106.912 95.1298C106.823 94.8823 106.744 94.6309 106.679 94.3759C106.336 93.0268 105.608 89.9674 107.496 89.581C108.069 89.5555 109.183 89.5371 109.62 89.3945C110.844 88.9951 110.854 88.1696 112.139 88.7041C112.358 88.7951 114.318 87.9311 114.766 87.7382L114.862 85.8945L114.641 85.7754C113.699 85.6185 113.385 85.6135 112.439 85.6347C111.398 85.8408 109.365 85.8524 108.17 85.9765C107.526 86.4748 107.221 86.7538 106.808 87.209C106.67 87.3605 106.52 87.5321 106.342 87.7373C106.413 87.366 106.486 86.9951 106.562 86.625C106.639 86.255 106.719 85.8854 106.802 85.5166ZM102.095 80.539C102.168 83.472 102.247 86.1953 102.146 89.0752L102.091 90.3193C102.086 90.8637 102.091 91.7188 102.082 92.5605C102.077 92.9816 102.069 93.3993 102.054 93.7734C102.038 94.1472 102.017 94.4776 101.984 94.7236C101.474 94.8577 100.836 95.0606 100.267 95.0595C100.219 95.0595 100.172 95.0577 100.126 95.0547C100.079 95.0516 100.034 95.0474 99.9883 95.041C99.8981 95.0282 99.8103 95.0083 99.7266 94.9804C99.6951 94.7784 99.5545 94.5605 99.4541 94.374C99.0381 94.4131 99.3967 94.718 98.666 94.9423C98.0816 94.5133 98.7451 94.7771 98.2471 94.0068L97.2578 95.0107C95.8774 95.3582 94.279 95.6567 92.8555 95.3222L92.5732 95.247C89.0608 92.6127 89.8594 82.4044 98.4854 85.3291C99.1252 84.2383 97.9392 82.2863 98.6562 81.1474C99.0175 80.8093 99.489 80.833 99.9961 80.7861C100.72 80.6702 101.369 80.6076 102.095 80.539ZM79.8389 85.2695C81.8848 84.9401 84.5766 84.4199 85.4971 86.8574C86.4341 88.7841 87.4064 93.1224 86.4082 95.0215L85.7363 95.1347C84.9175 95.2591 83.7719 95.3939 83.3154 95.3457C83.0235 95.2968 82.7576 95.2361 82.4707 95.1709C82.3699 94.7033 83.1697 93.4692 83.2373 92.831C83.3698 91.5761 83.4309 90.2554 83.5 89.0009L83.5176 86.4482L83.3564 86.3877C81.6546 85.8356 78.964 87.4635 77.4336 88.1279C76.1001 91.0291 77.0573 92.3817 78.2207 95.1601C77.3598 95.2179 76.5823 95.2727 75.7178 95.2675C75.6622 91.9406 74.9981 89.3549 75.1211 85.7461C76.7677 85.7067 78.2194 85.5304 79.8389 85.2695ZM121.534 85.6689C122.485 85.3887 124.098 85.234 124.74 86.1543C125.263 86.904 124.993 87.5837 124.821 88.4004C124.711 89.5857 124.678 94.3538 124.148 95.0185C123.647 95.3126 123.031 95.2453 122.41 95.3154L122.144 95.3554C121.915 95.3157 121.355 95.2376 121.311 95.0742C120.808 93.1809 121.236 87.3654 121.534 85.6689ZM143.533 79.2158C143.091 83.946 143.448 90.4608 142.686 94.9463C142.12 94.9948 141.207 95.1015 140.669 95.0586L140.668 95.0595C138.257 95.1303 136.851 95.307 134.367 95.1972C130.406 92.2546 131.162 89.3018 133.325 85.4804C136.006 84.0286 138.175 84.2813 141.156 84.3506C141.072 82.9678 141.21 81.1688 141.382 79.7949C142.159 79.5421 142.719 79.3417 143.533 79.2158ZM141.173 94.8115V94.8125V94.8115ZM123.663 86.749C123.145 86.6639 123.353 86.631 122.88 86.8808C121.96 88.0902 122.092 92.7841 122.077 94.5088C124.172 93.9692 123.776 94.2998 123.856 92.1093C123.9 90.9289 123.913 89.7178 123.917 88.5322C123.898 87.996 123.945 87.1621 123.663 86.749ZM67.1504 90.2138C65.8697 90.5639 62.8024 91.2957 61.8164 92.0146C61.6595 92.3044 61.6381 92.3222 61.6104 92.6435C61.733 93.1974 61.8259 93.7742 62.1084 94.2627C63.3005 94.1391 66.5983 95.1575 67.4121 93.3076L67.4482 92.5195C67.4691 91.7826 67.4462 91.1626 67.4014 90.3047L67.1504 90.2138ZM114.176 89.7988C113.326 89.0027 112.912 89.5232 112.164 90.1972C109.979 92.0058 109.848 89.781 107.942 91.7392C108.025 93.1442 107.795 94.337 109.623 94.1748C109.716 94.1664 109.808 94.1565 109.9 94.1465H109.901C110.609 93.958 112.55 94.2095 114.163 93.8711C114.371 92.5473 114.368 91.8053 114.366 90.4521L114.176 89.7988ZM95.7109 86.4677C92.4991 88.1997 91.4645 90.8501 94.0215 93.7988C96.1561 94.4762 97.6129 93.3056 98.5723 91.4765C98.6366 91.1245 98.6808 90.7746 98.709 90.4257C98.7231 90.2511 98.7331 90.0767 98.7402 89.9023C98.7617 89.3795 98.7546 88.8573 98.7383 88.331L98.6992 87.2724L98.5303 86.7695C97.7176 86.6932 96.4285 86.4521 95.7109 86.4677ZM138.844 85.8037C135.738 86.1838 134.93 87.4184 133.326 89.8779C133.566 91.1973 133.687 91.4899 134.544 92.5947C135.476 92.9657 136.33 93.0999 137.328 93.1894C138.414 93.2552 139.148 93.1666 140.188 92.9384C141.063 90.28 141.11 88.6361 140.874 85.8691C140.168 85.8637 139.553 85.8474 138.844 85.8037ZM129.385 90.2949C129.68 91.215 129.268 92.0429 128.597 92.6767C128.459 92.5656 128.452 92.5245 128.347 92.372C128.462 91.5847 128.787 90.8085 129.22 90.1435L129.385 90.2949ZM114.446 89.5996H114.447H114.446ZM115.031 89.3681V89.3672V89.3681ZM127.688 85.3632C128.655 85.2895 129.304 85.2664 129.857 86.0957C129.9 86.5764 129.946 86.3834 129.646 86.8183C129.256 87.0996 128.802 87.006 128.306 86.9775C127.238 86.7357 126.583 87.1769 125.78 86.5976C125.761 86.1157 125.715 86.3092 126.005 85.8623C126.502 85.5152 127.089 85.4664 127.688 85.3632ZM25.2715 48.1718C25.4798 48.1722 25.6728 48.2076 25.8262 48.3017C26.024 48.4235 26.4081 49.1157 26.9229 50.2109C27.0257 50.4297 27.1342 50.6652 27.2471 50.915C27.9252 52.4155 28.7767 54.4507 29.7061 56.7334C30.0157 57.4939 30.3337 58.2828 30.6572 59.0879C31.6282 61.5042 32.6466 64.0738 33.6162 66.5097C34.2626 68.1335 34.8883 69.6985 35.4639 71.1191C36.0394 72.5396 36.565 73.8172 37.0137 74.8652C37.4622 75.9128 37.834 76.7323 38.0996 77.2382C36.3017 77.362 34.6803 77.36 32.8779 77.3613L30.9912 77.3925C30.3348 76.1973 28.6232 71.4906 28.0078 70.8828L27.9521 70.8369C27.3983 70.9785 26.7943 71.0753 26.1572 71.1416C26.0296 71.1549 25.9007 71.1677 25.7705 71.1787C23.1717 71.3974 20.0962 71.1738 17.624 71.4306C17.5004 71.4435 17.3783 71.4582 17.2578 71.4736C16.6556 71.5504 16.094 71.6595 15.5908 71.8164L15.5898 71.8174H15.5908C15.5714 71.8507 15.5531 71.8846 15.5342 71.9179C15.4849 72.0049 15.4359 72.0912 15.3896 72.1777C15.3254 72.2978 15.2639 72.4183 15.2051 72.5381C15.181 72.587 15.158 72.6366 15.1348 72.6855C15.1052 72.7478 15.0752 72.8098 15.0469 72.872C14.9103 73.1717 14.7874 73.4707 14.6738 73.7695C14.3769 74.5509 14.1414 75.332 13.8789 76.1269C13.8212 76.3016 13.7595 76.4762 13.6982 76.6523C13.5896 76.9648 13.4768 77.2811 13.3486 77.5996C13.192 77.6412 13.0415 77.6756 12.8975 77.706C12.8736 77.7111 12.8498 77.7159 12.8262 77.7207C12.6911 77.748 12.5612 77.7709 12.4355 77.79C12.431 77.7907 12.4265 77.7922 12.4219 77.7929C12.2325 77.8214 12.0527 77.8413 11.8799 77.8554C11.8767 77.8557 11.8733 77.8552 11.8701 77.8554C11.7656 77.8638 11.6636 77.8702 11.5635 77.875C11.4186 77.8819 11.2776 77.8865 11.1387 77.8886C10.8218 77.8936 10.5155 77.8907 10.1973 77.9013C9.87871 77.912 9.54777 77.9356 9.18262 77.9941C8.02939 78.1679 6.87813 78.3557 5.72949 78.5576C5.82034 78.3418 5.91552 78.1261 6.0127 77.9111C6.69373 76.4042 7.50819 74.909 8.15039 73.3457L14.543 57.8047C15.4511 55.6324 16.3051 53.4358 17.2803 51.2939C17.6053 50.5799 17.9443 49.871 18.3027 49.1718C18.3547 49.0707 18.4106 48.9865 18.4707 48.916C18.5609 48.8104 18.6623 48.7335 18.7783 48.6699C18.8946 48.6061 19.0266 48.555 19.1777 48.5009C19.3783 48.504 19.5774 48.5042 19.7754 48.5019C19.9733 48.4996 20.1701 48.4952 20.3662 48.4892C21.1509 48.4653 21.9249 48.4192 22.7139 48.4082C23.1085 48.4027 23.5068 48.4056 23.9121 48.4248C24.277 48.3395 24.8129 48.1708 25.2715 48.1718ZM65.498 48.2031C65.3337 49.6024 65.3061 51.3786 65.2471 52.8115C60.2601 52.9238 55.5333 52.9597 50.5723 53.5302C50.5126 55.3939 50.1664 57.5982 50.0752 59.6279C54.7903 60.002 59.8172 59.8443 64.5479 59.6377C64.4685 61.1597 64.4126 62.6833 64.3789 64.207C60.3644 64.232 54.8848 64.3232 50.9521 64.7666C50.7656 65.2409 50.6538 65.8502 50.5439 66.3574C50.528 69.6334 50.4181 73.2484 50.4658 76.4892C49.1244 76.648 47.7053 76.8419 46.3594 76.8242C45.5797 76.9085 44.657 76.9455 43.8633 76.9951C43.8905 72.6756 43.7436 68.2521 43.7432 63.9121C43.7689 58.7052 43.8825 53.4988 44.084 48.2959C47.2326 48.6623 52.618 48.3975 55.8516 48.2929C59.0663 48.2097 62.2824 48.18 65.498 48.2031ZM70.7344 58.1406C73.6267 48.7126 80.9217 46.8286 89.9893 47.7978C92.5701 48.0736 94.7285 48.8364 97.1895 49.5986C96.8113 51.0097 96.8708 52.897 96.5654 54.4697L96.4629 55.4502C96.4353 55.4575 96.4065 55.4574 96.377 55.4521C96.17 55.4149 95.9161 55.0979 95.6602 54.9052C95.4301 54.7321 95.1933 54.5704 94.9512 54.4189C94.7089 54.2673 94.4609 54.1258 94.209 53.9922C93.7055 53.725 93.1849 53.4904 92.6572 53.2724C92.3055 53.1271 91.9501 52.989 91.5947 52.8545C88.8265 52.1851 84.6899 51.6577 82.1514 53.2939C80.119 54.6039 78.3888 56.9455 77.8984 59.291C76.7719 64.6802 78.6553 71.119 84.752 72.2734C88.1067 72.9087 91.8852 71.5607 94.7676 69.8252C95.5742 69.317 96.6523 68.4498 97.4082 67.8486C97.0041 69.6174 96.5454 72.3923 96.3486 74.1914C94.34 74.9249 91.5426 76.051 89.5254 76.3125L88.9492 76.4228C88.0052 76.5965 87.1394 76.7191 86.2979 76.7793C85.5402 76.8335 84.8024 76.8354 84.0449 76.7822C83.1198 76.7172 82.1653 76.5686 81.1104 76.3193C77.5793 75.7014 73.5679 72.7032 71.8779 69.5312C70.0105 66.0336 69.5995 61.9397 70.7344 58.1406ZM21.8271 56.08C21.2452 57.4834 17.1131 67.1914 17.2822 67.6318C18.0825 67.3633 25.0773 67.045 26.2236 67.0088C24.6715 62.3995 24.42 60.5866 21.8271 56.08Z" fill="#7AA6C1"/>
</svg>
