<svg width="160" height="160" viewBox="0 0 160 160" fill="none" xmlns="http://www.w3.org/2000/svg">
<path d="M63.0312 36.1621C63.3161 36.005 63.5877 35.9521 63.9004 36.0478C66.3744 36.805 70.7703 45.7754 72.3877 48.0595C76.2859 48.3781 81.8574 48.1906 85.9072 48.2627C93.9295 48.3522 101.953 48.3512 109.976 48.2607L125.075 48.2773C129.367 48.241 134.142 47.9609 138.368 48.0185C140.086 49.1156 143.063 52.2223 143.435 54.2627C143.719 55.8288 143.723 58.6753 143.763 60.3506L143.977 72.3642C144.222 82.4474 144.387 92.5323 144.474 102.618C144.484 107.267 144.545 111.845 144.283 116.489C144.141 119.018 141.424 123.363 138.685 123.18C136.568 123.404 133.613 123.397 131.441 123.445C127.069 123.549 122.696 123.616 118.322 123.645C107.4 123.816 96.4769 123.882 85.5537 123.842L74.6904 123.808C73.8991 123.804 70.6937 123.845 70.0449 123.743L53.582 123.895C52.7829 124.063 48.8331 124.072 47.8135 124.042C44.4358 123.943 41.3543 124.203 38 124.41C37.709 124.428 37.4767 124.485 37.3066 124.7C38.1689 124.709 39.797 124.69 40.5674 124.86C39.2436 125.056 34.4119 124.831 32.7646 124.857C30.2979 124.787 27.8346 124.937 25.3701 124.904C24.7045 124.896 24.0145 124.802 23.3564 124.701C22.5917 124.583 22.5353 124.389 22.2275 123.729L21.5254 123.47C20.2651 122.781 19.6502 122.282 18.8047 121.134C17.9707 120.35 17.025 117.871 16.9434 116.735C16.5394 111.115 16.5303 105.457 16.457 99.8222L16.1738 70.1806L16.0811 61.0898C16.0717 60.5232 15.9378 57.7177 16.0342 57.3662C17.1456 53.3148 18.0142 51.7593 21.3828 49.5605C21.612 49.3602 21.8544 49.1808 22.124 49.0381C24.4866 47.7882 43.1821 48.0859 46.0186 48.9677C46.3709 48.9831 47.0224 48.9613 47.2246 49.2246C48.0537 50.3044 48.84 51.4448 49.6562 52.5322C50.6941 53.915 51.8368 54.7186 52.6123 56.2685C53.6799 52.8062 60.4272 37.5993 63.0312 36.1621ZM63.5137 45.9736C62.8365 48.1692 61.2116 51.1259 60.2344 53.2636C59.9456 53.895 59.0463 55.4421 58.8838 56.0097L58.8457 56.1035C58.1575 57.3523 55.7448 62.8336 55.2051 63.4648C53.8522 63.0606 50.2739 62.7476 49.2432 63.624L49.168 63.54C48.4161 62.6895 47.8071 61.5671 47.1387 60.6631C45.9378 59.0392 45.0238 57.4284 44.4961 55.4658C44.1719 54.26 43.9217 54.0916 42.6572 54.0381C37.1048 53.8655 31.5384 54.0665 25.9893 54.2744C25.2581 54.3018 24.5001 54.3555 23.7773 54.4511C23.2825 55.4722 22.4031 57.1126 22.3467 58.1767C22.2148 60.6632 22.26 63.3119 22.2861 65.8056L22.5498 81.6006L22.8047 106.429C22.8654 110.048 22.7426 115.467 23.2412 118.9C30.173 119.238 39.0322 118.83 46.126 118.805C59.4593 118.741 72.7932 118.781 86.126 118.927L98.9102 118.959C100.492 118.962 103.513 118.863 104.961 118.978C104.018 119.139 101.903 119.108 100.894 119.115C98.5148 119.132 96.1748 119.101 93.792 119.186C94.6725 119.231 98.2499 119.082 98.4863 119.608L98.2773 119.697L98.2021 119.939C98.0635 120.018 94.0865 120.003 93.0908 120.259L121.831 119.618C123.321 119.574 130.903 119.438 132.006 119.159L131.88 119.085C131.468 119.247 130.577 119.197 130.087 119.208L130.162 119.048C130.756 118.846 131.499 118.845 132.135 118.81L131.006 118.692C132.836 118.329 135.847 118.643 137.897 118.219C138.167 111.59 138.043 105.906 138.017 99.292C138.016 88.3166 137.824 77.3417 137.44 66.373C137.35 63.703 137.502 56.2866 137.001 54.0898C135.072 53.7041 132.984 53.7416 131.017 53.6523C127.53 53.494 124.071 53.4906 120.584 53.4756C112.983 53.443 104.656 53.1586 97.0889 53.6211C95.1024 53.4054 93.2295 53.3213 91.2461 53.1777C89.9969 53.0873 87.8813 52.4895 86.6787 52.5332C83.584 52.6457 80.3084 52.839 77.2217 53.0342L77.21 53.1465C77.809 53.2888 78.779 53.2329 79.4219 53.2236C77.5157 54.0117 74.61 53.1647 73.3437 53.7588C71.4741 53.7892 70.7823 53.7046 68.9414 53.3349C66.4722 50.851 65.5129 48.5059 63.5137 45.9736Z" fill="#717B88"/>
<path d="M91.9971 93.1924C92.6766 93.2435 93.6642 93.32 94.3008 93.5049C97.5626 94.4526 103.65 98.2576 106.18 100.565C107.248 99.081 107.944 95.1801 109.743 94.1865L109.979 94.7461C109.1 96.1671 108.458 99.7642 107.371 100.713C107.555 100.929 108.073 101.516 108.196 101.723C108.465 102.098 108.897 102.641 109.022 103.06C109.313 103.797 109.478 103.914 109.934 104.55C108.146 104.163 107.853 102.711 106.238 101.432L106.111 101.403C102.132 99.071 98.7664 95.5905 94.1689 94.2588C91.4927 93.4838 88.5649 98.6356 88.043 100.895L88.042 100.896C88.1188 102.6 90.3237 104.53 91.502 105.913C89.8171 104.973 88.6739 104.052 87.3174 102.666C87.0617 102.405 86.03 101.428 85.6943 101.419C83.9846 101.346 82.643 99.8131 81.5166 98.6767C80.9334 98.0915 78.9821 96.9013 78.2051 96.4111L76.9785 95.8359C75.8733 95.3158 74.798 94.8485 73.5762 94.7236L73.2393 94.6982C71.7285 95.1654 70.8946 95.3002 69.6992 96.4658C68.7383 97.5934 67.9216 98.7092 67.4316 100.131L67.4307 100.132L67.4932 100.426C67.6417 101.068 67.8153 101.423 68.1162 102.098C68.668 102.856 70.1607 104.65 70.292 105.458L70.1572 105.564C69.2241 105.253 69.1042 104.421 68.1543 103.876C67.3661 103.839 66.6892 103.478 66.1064 102.982L65.8623 102.763C63.3413 101.495 58.0827 98.4091 56.8232 95.9707L57.0146 95.249C57.494 95.2668 57.8147 95.2867 58.2939 95.2305C58.6182 95.6131 58.8585 95.9268 59.2607 96.2305C59.6471 95.9425 59.7089 95.9147 60.167 95.7607C61.1416 95.7526 67.4828 96.4333 68.1445 96.7715L68.5156 96.3213L68.7559 96.207C70.3315 94.5221 71.9715 94.0321 74.2109 93.9189C75.819 94.2593 76.7887 94.7106 77.9785 95.3906L79.2734 96.1514L79.8672 96.4726C81.6458 97.4708 85.8726 100.01 86.4248 99.9961L86.6309 99.8252C87.1848 98.3948 90.6246 94.1199 91.9971 93.1924ZM96.5527 74.123C101.847 74.2584 107.783 73.6715 112.998 74.2871C113.051 74.495 113.127 74.6862 113.073 74.8857C111.93 75.5141 111.106 75.6235 109.821 75.7588C104.342 76.3358 98.8429 76.3569 93.3418 76.3164C87.6856 76.2747 82.0219 76.741 76.3604 76.5146C75.9192 76.497 75.5081 76.492 75.0664 76.4385C73.5429 76.3983 72.2376 76.3785 70.7109 76.4306C69.3157 77.044 59.5097 76.7656 57.4688 76.5996L57.4756 74.5556C61.9285 74.7143 66.5963 74.3383 71.0068 74.4101C77.7615 74.5201 84.4361 74.5387 91.1943 74.4111C92.9285 74.4261 94.8328 74.0789 96.5527 74.123Z" fill="#3583B2"/>
</svg>
