<svg width="160" height="160" viewBox="0 0 160 160" fill="none" xmlns="http://www.w3.org/2000/svg">
<path fill-rule="evenodd" clip-rule="evenodd" d="M100.381 35.3261C107.37 35.3053 114.983 35.0581 121.902 35.203C121.71 36.9162 121.733 39.0155 121.712 40.7743C122.148 45.3808 121.611 49.6714 121.604 54.33C121.379 55.5872 121.114 55.6952 119.749 55.7694C119.479 56.5201 119.392 57.5045 119.587 58.2792L119.44 58.6454C119.272 58.6702 119.109 58.7038 118.939 58.6932C117.55 59.1278 116.046 58.1966 114.612 57.8671C110.168 56.8456 106.294 56.3714 101.717 56.6229C101.597 57.026 101.668 57.1056 101.927 57.4872L102.179 57.5936C102.365 58.1099 102.266 59.7025 102.585 60.1444C102.91 60.5952 104.276 61.2068 104.835 61.4696C105.124 61.6052 105.414 61.738 105.706 61.8661C105.722 62.4718 105.785 63.9797 105.534 64.4823L105.308 64.6268C101.396 64.0189 97.4909 62.8627 93.623 61.9472C90.9749 61.3203 84.6407 60.468 82.3877 59.4393C80.0406 58.4816 79.7127 58.3009 77.6963 56.5839C75.286 54.5317 72.2913 52.8708 69.0225 52.9862C68.0081 53.7646 65.0634 55.7893 64.7578 56.7782L64.8135 57.7333C65.0212 58.4015 65.2388 59.0666 65.4658 59.7284C65.3581 59.7771 65.1629 59.8242 65.042 59.8583C62.5659 59.4217 61.1077 57.6035 59.2256 56.6181C57.0054 55.4557 55.9326 54.9998 53.7393 53.5292C50.8368 53.4013 48.5681 54.8537 46.4922 56.7772C45.6102 57.5945 46.7808 58.7491 46.6494 59.4315C45.1976 60.1149 40.0323 55.7043 38.3721 55.5038C38.0774 55.4683 37.6969 55.3958 37.3906 55.3563C37.1934 53.7208 37.2616 50.2812 37.25 48.5487C37.3426 47.5299 37.2472 45.2594 37.1924 44.2557C37.1272 41.5035 37.2815 38.1167 37.0254 35.4403C39.3143 35.5394 42.2784 35.4601 44.5918 35.4403C48.878 35.3888 53.1645 35.3609 57.4512 35.3573L100.381 35.3261Z" fill="#559AC1"/>
<path d="M86.5183 106.708C84.5492 107.771 82.0976 107.752 79.9052 107.729C74.6536 107.643 69.0443 107.902 63.8298 107.644C60.8865 107.499 59.0404 105.355 59.0731 102.585C59.1513 95.9459 59.148 89.2441 59.2329 82.6048C59.2567 80.7431 60.3 79.2819 62.1267 78.9126C62.5397 79.1749 63.2489 79.126 63.7634 79.1386C63.185 79.2539 62.4172 79.2267 62.0957 79.5045C61.9339 79.8602 61.9593 80.0811 61.9577 80.4642C61.6832 81.8941 61.4432 83.3155 61.3268 84.769C61.1045 87.5428 60.4554 103.531 61.6626 105.307C62.005 105.811 62.8486 105.963 63.4068 106.053C65.3723 106.369 67.476 106.265 69.4678 106.271C75.0223 106.285 80.6007 106.359 86.0103 104.934C86.7698 105.373 86.4885 106.185 85.909 106.27C85.6943 105.805 86.18 105.637 85.8998 105.376L85.999 105.493L85.7521 105.467C85.4964 105.697 85.1949 105.902 85.117 106.214C85.4919 106.696 85.8473 106.454 86.361 106.533L86.5183 106.708Z" fill="#693849"/>
<path d="M87.4938 78.519C88.0026 78.6471 88.0155 78.5586 88.2736 78.8907C88.5017 80.9652 88.2867 86.4324 88.2817 88.8479L88.2866 98.0976C88.2882 100.554 88.3443 103.731 87.9251 106.108C87.5873 106.278 86.8454 106.7 86.5183 106.708L86.3611 106.533C85.8473 106.453 85.4919 106.695 85.117 106.214C85.195 105.902 85.4964 105.697 85.7521 105.467L85.999 105.493L85.8998 105.376C86.18 105.637 85.6943 105.805 85.909 106.27C86.4886 106.185 86.7699 105.373 86.0103 104.934C86.4089 104.295 86.1451 88.8457 86.1865 86.7791C86.4698 84.1162 86.0057 81.8149 86.5696 78.9679C86.6928 78.8641 87.2941 78.6148 87.4938 78.519Z" fill="#693849"/>
<path d="M74.5338 78.4506C76.2421 78.3096 86.2236 78.1791 87.4938 78.5188C87.294 78.6146 86.6928 78.8639 86.5696 78.9677C86.0056 81.8147 86.4698 84.1159 86.1865 86.7788C86.1155 84.7726 86.1783 82.375 86.1771 80.3373L61.9577 80.464C61.9593 80.0808 61.9339 79.86 62.0957 79.5043C62.4172 79.2265 63.185 79.2537 63.7634 79.1384C63.2489 79.1258 62.5397 79.1747 62.1267 78.9124C63.3865 78.5308 72.9568 78.4405 74.5338 78.4506Z" fill="#955569"/>
<path d="M74.5338 78.4506C76.2421 78.3096 86.2236 78.1791 87.4938 78.5188C87.2941 78.6146 86.6928 78.8639 86.5696 78.9677C85.8234 79.1419 82.1591 79.0078 81.1632 78.9947C78.7752 78.9772 76.3871 78.9736 73.999 78.9839C70.5875 79.0538 67.1755 79.1053 63.7634 79.1384C63.2489 79.1258 62.5397 79.1747 62.1268 78.9124C63.3865 78.5308 72.9568 78.4405 74.5338 78.4506Z" fill="#11030C"/>
<path d="M74.5338 78.4506C76.242 78.3096 86.2236 78.1791 87.4938 78.5188C87.294 78.6146 86.6928 78.8639 86.5695 78.9677C85.8234 79.1419 82.1591 79.0078 81.1631 78.9947C78.7752 78.9772 76.3871 78.9736 73.999 78.9839C75.5101 78.6324 80.0085 79.0648 81.2755 78.7041C80.3101 78.1831 76.1241 78.5661 74.5338 78.4506Z" fill="#4B213C"/>
<path d="M66.1199 93.0028C66.505 91.5721 72.9078 85.5816 74.2813 85.8202C74.6309 86.2494 74.533 86.2332 74.6328 86.8593C74.5455 87.3555 74.3746 88.5002 74.1882 88.9216C74.9454 90.1577 73.8294 90.8726 75.504 91.1228L76.7261 91.391L78.5543 91.421C79.8374 91.2138 80.3729 91.2525 81.685 91.4072C81.6777 92.1841 81.7911 93.6861 81.3398 94.202C80.4942 94.4922 76.2207 94.7268 75.2887 94.6555C74.0505 95.9498 74.8912 102.243 69.9288 97.7519C68.2098 96.1963 67.016 95.1896 66.1199 93.0028Z" fill="#955569"/>
<path d="M66.1199 93.0028C66.505 91.5721 72.9078 85.5816 74.2813 85.8202C74.6309 86.2494 74.533 86.2332 74.6328 86.8593C74.5455 87.3555 74.3746 88.5002 74.1882 88.9216C73.6385 89.9906 72.9074 90.7038 72.1647 91.652L71.3973 91.429C70.8087 91.5219 70.4368 91.7198 69.9311 91.4699C68.136 92.3393 68.1366 92.6074 66.1199 93.0028Z" fill="#4B213C"/>
<path d="M74.043 86.9574L74.6328 86.8594C74.5455 87.3556 74.3746 88.5003 74.1883 88.9217C73.6386 89.9907 72.9074 90.7039 72.1647 91.652L71.3973 91.4291C70.8087 91.522 70.4368 91.7199 69.9311 91.47C71.2871 89.6957 71.8153 88.2346 74.043 86.9574Z" fill="#948D93"/>
<path d="M74.043 86.9574L74.6328 86.8594C74.5455 87.3556 74.3746 88.5003 74.1883 88.9217C73.6386 89.9907 72.9074 90.7039 72.1647 91.652L71.3973 91.4291C71.4433 91.3969 71.4886 91.364 71.5333 91.3302C73.1766 90.092 73.7678 88.9897 74.043 86.9574Z" fill="#693849"/>
<path d="M78.5544 91.4209C79.8375 91.2137 80.3729 91.2523 81.685 91.407C81.6777 92.184 81.7911 93.686 81.3398 94.2018C80.4942 94.492 76.2207 94.7267 75.2888 94.6554C76.2732 93.9443 78.2618 94.7582 78.5925 93.918C78.4097 93.7882 77.7951 93.9215 77.3217 93.8115L77.3295 93.6902C77.7401 93.5854 78.1054 93.4899 78.5103 93.3607C78.449 92.9552 78.3845 92.7114 78.4857 92.3065C78.8168 91.9233 78.6489 92.0287 79.1127 91.8856L78.9362 91.6787C78.4283 91.5937 78.103 91.5841 77.5876 91.5674C77.9653 91.5565 78.2141 91.5829 78.5544 91.4209Z" fill="#955569"/>
<path d="M79.1127 91.8857C79.5375 91.5716 79.4218 91.5669 79.8964 91.51C80.2987 92.0733 79.9783 92.9339 79.6966 93.5132L79.4945 93.6682C79.0563 93.6015 79.2252 93.6653 78.8424 93.3446C78.5494 92.6013 78.6522 92.5206 79.1127 91.8857Z" fill="#955569"/>
<path d="M72.1647 91.652C72.9074 90.7038 73.6386 89.9906 74.1883 88.9216C74.9454 90.1577 73.8294 90.8726 75.504 91.1229C74.6868 91.2735 73.629 92.4636 72.1647 91.652Z" fill="#948D93"/>
<path d="M76.7262 91.3911L78.5543 91.4211C78.2141 91.5832 77.9653 91.5567 77.5876 91.5676C77.3681 91.5269 77.2881 91.5646 77.0753 91.6185C77.1491 92.4116 77.2562 93.314 76.4959 93.7088C75.8853 93.7155 75.737 93.7236 75.6254 93.1611C75.9162 92.2282 75.9506 91.9728 76.7262 91.3911Z" fill="#955569"/>
<path fill-rule="evenodd" clip-rule="evenodd" d="M119.038 73.0354C120.279 71.8413 122.617 70.9715 124.244 71.4172C127.54 72.3203 132.304 76.9489 134.215 79.6721C134.346 81.4519 134.227 84.8482 134.224 86.7287L134.254 100.321C134.409 101.409 134.363 102.372 134.465 103.448C134.598 104.854 134.86 106.05 134.939 107.471C136.143 107.657 137.005 107.963 138.165 108.321L138.497 108.459C138.677 108.95 138.485 113.167 138.464 114.001C138.474 114.778 138.315 116.929 138.635 117.398L138.857 117.45C140.507 117.344 143.335 117.311 144.801 117.122C144.706 117.843 144.387 121.691 144.214 122.086L144.178 122.173L144.084 122.225C143.682 122.447 143.694 122.52 143.506 122.641C141.434 123.974 138.779 124.076 136.337 124.148C135.726 124.166 135.129 124.182 134.558 124.215C134.367 124.226 134.179 124.239 133.995 124.254C132.502 124.38 130.631 124.934 129.089 125.089C128.869 125.111 128.655 125.125 128.45 125.128C126.854 125.155 125.272 125.162 123.697 125.163C122.122 125.164 120.554 125.159 118.984 125.16L105.22 125.247C102.102 125.262 98.9833 125.26 95.8652 125.239C92.7472 125.219 89.6293 125.181 86.5117 125.125C85.6379 125.118 81.327 125.099 77.1416 125.025C74.5256 124.978 71.9587 124.909 70.3105 124.809C69.3223 124.749 68.6644 124.677 68.5244 124.592C67.8462 124.572 67.1723 124.539 66.501 124.501C65.8294 124.463 65.1602 124.419 64.4912 124.375C63.4883 124.309 62.4858 124.243 61.4766 124.197C61.1399 124.182 60.8023 124.169 60.4639 124.159C59.9168 124.167 59.3693 124.173 58.8213 124.178C50.6007 124.253 42.281 124.024 34.0439 124.207C30.3122 124.311 26.5815 124.452 22.8525 124.629C21.7325 124.682 15.2969 125.108 14.9043 124.694L14.9248 124.035C15.0209 123.349 14.7903 121.221 14.6426 120.518C15.4356 119.794 15.9023 119.488 16.8164 118.941C22.5744 119.049 28.4648 118.944 34.2246 119.004C35.9329 119.022 40.0152 118.886 41.5254 119.04C47.8797 119.194 55.0578 118.886 61.4482 118.776L94.7959 118.228C100.014 118.128 106.345 117.805 111.445 117.937C113.846 117.866 116.247 117.817 118.648 117.789C118.831 114.749 118.758 110.657 118.791 107.547C118.901 101.025 118.925 94.5015 118.863 87.9787C118.825 83.7501 118.64 77.0263 119.038 73.0354Z" fill="#A2A8B0"/>
<path d="M40.1816 73.5036L41.617 73.2793C41.3068 78.1831 41.6597 84.7381 41.6682 89.883L41.5258 119.04C40.0158 118.886 35.9325 119.022 34.2243 119.005C28.4643 118.944 22.5741 119.049 16.816 118.94C17.0023 118.63 17.1781 118.436 17.4091 118.164C18.9543 115.944 20.4709 113.705 21.9585 111.446C22.3218 110.592 23.7358 108.542 24.3906 107.707C26.3729 105.074 29.9816 100.117 30.7392 96.9369C32.035 91.4969 29.2688 89.9211 35.3714 85.9918C36.0794 85.2733 36.3934 85.0847 37.2425 84.5433C37.4467 80.9061 37.556 77.227 37.7441 73.5767L40.1816 73.5036Z" fill="#955569"/>
<path d="M37.7441 73.5767L40.1816 73.5037C40.0929 73.8864 40.2982 75.5515 40.3075 76.2359C40.3442 78.9608 40.43 81.1096 39.9711 83.8155L39.8785 83.8664C38.7223 84.5109 36.9662 86.4458 35.3714 85.9919C36.0794 85.2734 36.3934 85.0848 37.2425 84.5433C37.4467 80.9061 37.556 77.2271 37.7441 73.5767Z" fill="#693849"/>
<path d="M21.9585 111.447C22.1919 112.358 19.5461 116.154 19.0879 117.29C18.8561 117.864 18.1658 118.102 17.5916 118.24L17.4091 118.164C18.9543 115.944 20.4709 113.705 21.9585 111.447Z" fill="#4B213C"/>
<path d="M100.646 83.8269C101.11 83.5446 101.339 83.427 101.837 83.2109C101.941 85.2386 102.021 87.5624 101.963 89.596C101.966 90.8914 102.262 101.508 101.894 102.023C101.194 101.946 99.4328 102.252 98.9185 102.007C99.2986 101.86 99.2033 101.954 99.4315 101.662C99.6067 100.531 99.7553 86.3365 99.6321 86.0812C99.7342 85.2845 100.684 84.623 100.646 83.8269Z" fill="#955569"/>
<path d="M101.894 102.023C100.643 100.33 101.355 91.8987 101.963 89.5959C101.966 90.8913 102.262 101.508 101.894 102.023Z" fill="#693849"/>
<path d="M99.6321 86.0811C98.9534 87.2265 97.0633 87.9252 95.9105 88.517C95.4303 88.7635 94.9964 88.9378 94.6217 88.5124C94.6472 86.9136 99.2666 84.3126 100.646 83.8269C100.684 84.623 99.7342 85.2845 99.6321 86.0811Z" fill="#693849"/>
</svg>
