<svg width="160" height="160" viewBox="0 0 160 160" fill="none" xmlns="http://www.w3.org/2000/svg">
<path d="M74.2768 31.9168C76.1721 29.2359 77.8301 26.3415 79.8873 23.788C82 21.1657 84.7367 21.2707 86.5264 24.0897C86.215 24.861 86.2631 25.3632 85.7908 26.0703C84.796 27.305 83.6491 29.7586 82.7435 31.1669C81.7452 32.7191 80.4255 34.1786 79.6664 35.8319C79.37 36.4776 79.1453 38.7963 79.2118 39.5064C77.1977 43.1583 73.5173 47.7292 72.3186 51.3835C72.8333 51.9064 74.5669 53.8355 75.1565 53.8971C76.571 53.4257 81.9121 45.4362 82.9407 43.7826C83.9781 42.1145 84.8446 40.3487 85.9124 38.696C87.2444 36.6346 88.7246 34.6847 90.0831 32.6449C91.4722 30.5594 93.1509 27.3255 95.2395 25.9349C96.3985 25.1632 97.8264 25.104 99.0681 25.7128C99.8269 26.0849 100.434 26.6554 100.708 27.4684C101.258 29.1002 100.581 31.0551 99.8336 32.5208C99.0902 33.9779 98.1043 35.3305 97.2619 36.734C96.421 38.1351 95.6358 39.5787 94.7459 40.9488C93.4838 42.8919 92.0998 44.7559 90.8499 46.7067C89.7169 48.475 88.6865 50.3088 87.5732 52.0896C86.5702 53.6938 85.3795 55.2619 84.5254 56.9462C84.2628 57.464 83.8354 58.2441 84.0247 58.8324C84.2718 59.6004 85.3437 60.9339 86.0761 61.3029C86.2535 61.3922 86.4171 61.3767 86.6088 61.3257C87.8447 60.9964 93.8155 51.9 94.7741 50.3961C95.6901 48.9594 96.4718 47.4404 97.3789 45.9987C98.8787 43.6149 103.115 37.4281 105.28 35.9818C106.603 36.3325 109.242 37.2394 109.955 38.5119C110.122 38.8098 110.019 39.634 109.906 39.9815C108.607 44.6463 105.727 48.0255 103.393 52.123C101.603 56.1725 98.2939 59.5827 96.4923 63.6392C96.1216 64.4742 95.9118 65.2778 95.4423 66.0758C96.2837 67.1007 96.8359 68.0696 97.7987 69.0866C99.9345 67.9901 104.639 59.936 106.364 57.5548C108.014 55.2762 108.065 54.0986 110.592 51.9346C111.896 52.1119 112.695 52.1781 114.014 52.0364C114.691 52.2717 116.529 53.3896 116.93 53.9511C116.55 55.4989 114.027 61.3808 113.067 62.1152C112.517 63.1173 111.954 64.0064 111.344 64.9693C109.006 68.7942 106.616 72.588 104.177 76.3494C103.603 77.2313 101.987 79.8084 101.335 80.4249C101.118 81.2644 96.0718 87.3577 95.072 88.2791C92.2819 90.8504 89.9994 92.0411 86.512 93.2529C83.9875 94.2936 81.8341 94.9982 79.0556 94.9016C76.1475 94.9236 73.537 93.8474 70.8148 93.1553C67.6901 92.3608 66.6495 91.539 64.0473 89.8719C59.538 86.983 56.2256 83.614 52.5626 79.7672L52.3979 79.3551C51.7221 78.0412 51.0125 76.3541 50.3857 74.9815C50.2805 74.6627 50.2668 74.5347 50.0246 74.2993C49.9197 74.0218 49.6259 72.2286 49.545 71.8053C49.4748 71.3148 49.0959 70.0296 48.9513 69.492L48.6859 68.4818C47.49 63.4074 46.4492 58.2976 45.5648 53.1597C44.9134 49.507 44.3258 48.2886 44.4099 44.2876C45.2383 43.514 46.8979 42.1727 47.8487 41.6225C48.1934 41.7157 50.4256 41.4911 50.8248 41.3831C51.6135 41.7725 53.9548 43.4947 54.3394 44.3859C55.4005 46.845 55.9623 50.6534 56.6494 53.3451C56.8733 54.2227 57.0159 56.6515 57.8649 56.7702C59.1736 55.5594 60.3951 52.4733 61.549 50.902C63.9354 47.6523 66.1928 44.3447 68.3553 40.9431C69.7728 38.7133 72.0417 36.2151 73.0771 33.817C73.3011 33.657 74.1061 32.228 74.2768 31.9168Z" fill="#65A4C8"/>
<path d="M101.335 80.4249C101.467 79.5028 104.206 75.7399 104.796 74.7308C105.826 72.9762 106.779 71.1779 107.653 69.341L107.871 69.3006L107.865 69.2692L107.919 69.8714L108.053 69.8072C108.22 69.3509 108.26 69.2403 108.681 68.9812C108.84 67.9765 110.79 65.6708 111.323 64.6762C111.863 63.6701 112.211 63.0525 112.832 62.0952L113.067 62.1153C112.517 63.1174 111.954 64.0064 111.344 64.9693C109.006 68.7943 106.616 72.588 104.177 76.3495C103.603 77.2313 101.987 79.8084 101.335 80.4249Z" fill="#81A2B5"/>
<path d="M103.393 52.123C103.343 51.2327 106.485 46.33 106.998 45.1293C107.445 44.4602 107.759 42.9528 108.203 42.3541C109.156 41.0675 110.088 40.8496 109.76 38.9734C109.871 39.1585 109.886 39.7332 109.906 39.9815C108.607 44.6463 105.727 48.0256 103.393 52.123Z" fill="#537190"/>
<path d="M50.2399 45.1323C52.1078 45.602 50.4101 48.6315 51.2111 49.2062C51.745 48.9121 51.9619 47.7388 52.4468 47.5469C52.5619 47.8494 52.5389 47.7306 52.438 48.0937C52.4278 48.6636 52.4931 48.9805 52.1335 49.3703C52.0278 49.3752 49.5484 49.3547 49.588 49.3681L49.4896 49.1222C50.1847 47.8467 50.2378 46.5347 50.2399 45.1323Z" fill="#458EBC"/>
<path fill-rule="evenodd" clip-rule="evenodd" d="M134.125 13C134.131 14.6611 134.21 17.4248 134.048 18.9873C135.186 18.9488 141.55 18.6623 142.291 18.8506C142.344 18.9737 142.372 19.0101 142.385 19.0908L142.394 19.1914C142.352 20.1198 142.329 20.9278 142.343 21.8564C139.594 21.8941 136.843 22.0189 134.092 22.084C134.108 24.5924 134.228 27.0179 134.26 29.4727C133.494 29.4201 132.421 29.3166 131.68 29.3213L131.664 22.0273C131.769 21.127 131.706 20.1116 131.674 19.1973C131.576 17.4193 131.658 14.8397 131.658 13H134.125Z" fill="#458EBC"/>
<path d="M131.674 19.1973C131.706 20.1117 131.769 21.1269 131.665 22.0272L131.522 21.985C130.114 22.0118 124.918 22.2365 123.964 21.775C123.426 21.1288 123.459 20.1719 123.39 19.3224C126.035 19.3122 128.747 19.1819 131.427 19.1619L131.674 19.1973Z" fill="#458EBC"/>
<path d="M131.674 19.1973C131.706 20.1117 131.769 21.1269 131.665 22.0272L131.522 21.985C131.256 21.1887 131.264 19.9815 131.427 19.1619L131.674 19.1973Z" fill="#65A4C8"/>
<path d="M79.2118 39.5064C79.1454 38.7963 79.37 36.4776 79.6665 35.832C80.4255 34.1786 81.7452 32.7192 82.7435 31.1669C83.6491 29.7586 84.796 27.3051 85.7909 26.0703C85.915 26.6262 85.9916 27.611 85.8801 28.1717L85.9567 28.2623C85.0672 30.484 80.759 37.579 79.2118 39.5064Z" fill="#458EBC"/>
<path d="M85.7908 26.0702C86.2631 25.3631 86.215 24.8609 86.5264 24.0896C86.9756 24.606 86.9721 24.5569 86.9973 25.2491C87.0212 25.9031 86.3045 27.8328 85.9567 28.2621L85.88 28.1716C85.9915 27.6108 85.915 26.6261 85.7908 26.0702Z" fill="#537190"/>
<path d="M110.592 51.9347C111.723 51.3187 112.891 51.5086 114.014 52.0365C112.695 52.1782 111.896 52.112 110.592 51.9347Z" fill="#455970"/>
<path d="M47.8487 41.6226C49.0339 40.9978 49.6057 40.8346 50.8248 41.3831C50.4255 41.4912 48.1933 41.7157 47.8487 41.6226Z" fill="#458EBC"/>
<path fill-rule="evenodd" clip-rule="evenodd" d="M117.491 105C117.378 105.699 117.32 106.034 117.336 106.759C117.457 107.934 117.284 117.626 117.063 118.514L117.156 118.692C117.061 122.189 117.015 125.686 117.018 129.184C117.01 130.975 117.076 133.882 116.906 135.573C116.801 135.755 116.414 142.072 116.546 142.401C115.435 142.495 114.05 142.48 112.928 142.474C103.993 142.419 95.0462 143.095 86.1199 142.999C86.057 135.381 86.0358 127.762 86.0564 120.144C86.0557 116.326 85.8901 110.757 86.1316 107.063L86.1365 105.623C96.1431 105.707 107.508 105.409 117.491 105ZM113.549 110.588C111.775 110.756 109.031 110.665 107.178 110.684C102.276 110.733 97.3943 110.585 92.4949 110.963L92.5008 111.099C92.793 111.217 93.2429 111.35 93.5555 111.452C93.2417 114.003 93.315 119.728 93.3084 122.502C93.1279 125.606 93.3578 129.152 93.2937 132.291C93.2621 133.834 93.3879 135.497 93.1473 137.027C98.6519 137.174 103.922 137.148 109.417 136.794C110.125 136.748 112.438 136.824 112.97 136.664C113.116 136.167 112.74 135.643 112.713 135.187C112.848 133.595 112.695 130.771 112.735 129.072C112.859 123.866 112.629 118.329 112.869 113.151C113.236 112.693 113.173 111.875 113.192 111.271C113.404 111.572 113.345 111.77 113.375 112.19C113.415 112.08 113.52 110.835 113.549 110.588Z" fill="#5D6062"/>
<path fill-rule="evenodd" clip-rule="evenodd" d="M81.49 105C81.4056 105.524 81.3517 105.844 81.3367 106.276L81.3357 106.759L81.3543 107.074C81.4345 109.109 81.2707 117.681 81.0633 118.514L81.1551 118.692C81.0601 122.189 81.0139 125.686 81.0174 129.184C81.0093 130.975 81.0756 133.882 80.906 135.573C80.8008 135.751 80.4131 142.072 80.5447 142.401C79.4338 142.495 78.0493 142.48 76.9266 142.474C67.9918 142.419 59.0452 143.095 50.1189 142.999C50.0561 135.381 50.0348 127.762 50.0555 120.144C50.0547 116.326 49.8901 110.757 50.1316 107.063L50.1355 105.623C60.1421 105.707 71.5069 105.409 81.49 105ZM77.5476 110.588C75.7744 110.756 73.0298 110.665 71.1766 110.684C66.2751 110.733 61.3941 110.585 56.4949 110.963L56.4998 111.099C56.792 111.217 57.2428 111.35 57.5555 111.452C57.2417 114.003 57.315 119.728 57.3084 122.502C57.1279 125.606 57.3569 129.152 57.2928 132.291C57.2612 133.834 57.3869 135.497 57.1463 137.027C62.651 137.174 67.9211 137.148 73.4158 136.794C74.1239 136.748 76.4369 136.824 76.9695 136.664C77.1154 136.167 76.7404 135.643 76.7127 135.187C76.8479 133.595 76.6947 130.771 76.7351 129.072C76.8594 123.866 76.6277 118.329 76.868 113.151C77.2347 112.693 77.1719 111.875 77.1912 111.271C77.4033 111.572 77.3453 111.77 77.3748 112.19C77.415 112.08 77.5187 110.835 77.5476 110.588Z" fill="#5D6062"/>
<path d="M143 110.523C138.61 110.701 133.953 110.622 129.595 110.902C129.587 112.536 129.347 117.683 129.494 118.899L129.581 118.973L129.494 118.9C129.145 124.004 129.72 130.247 129.346 135.162C133.896 135.278 138.448 135.313 143 135.269V142.096C136.758 142.266 130.21 142.21 123.957 142.197C124.043 134.294 124.078 126.389 124.064 118.485L124.124 118.375C123.992 117.401 124.106 116.039 124.062 115.047C123.929 111.992 124.321 107.432 123.946 104.532C129.955 104.234 136.893 104.424 143 104.341V110.523Z" fill="#73818E"/>
</svg>
