<svg width="70" height="36" viewBox="0 0 70 36" fill="none" xmlns="http://www.w3.org/2000/svg">
<path d="M38.9541 22.4414C41.1146 22.309 41.8222 22.6002 43.6631 23.5439C43.6757 23.5418 43.8037 23.5194 43.8086 23.5186C45.2153 24.3519 46.7064 25.0756 48.087 25.9502C48.8975 26.4638 49.5335 26.5067 50.3633 26.9248C50.5407 27.0145 51.2286 27.5585 51.3868 27.541L51.3829 27.4619L51.3487 27.4355C51.118 27.2505 51.0463 27.0717 50.8545 26.8584C50.544 26.5127 50.2243 26.1682 49.9004 25.835V25.7871C50.5789 26.2336 51.5189 27.4936 51.8946 28.2412C52.2307 28.5453 52.5927 28.8614 52.918 29.1738C53.1384 29.4017 53.4348 29.7074 53.6133 29.9707C53.6483 29.9392 54.066 29.13 54.1143 29.0449C55.0806 27.339 55.6004 25.8521 57.0362 24.458C59.4984 22.0677 62.1373 22.0027 65.1778 23.2969C66.464 23.8442 67.3711 24.7376 68.7618 25.0762C68.7169 25.387 68.6578 25.6898 68.5987 25.998C68.4725 26.357 68.309 26.4619 68.0176 26.6934C67.9034 26.6376 67.792 26.5761 67.6807 26.5107C67.5691 26.4452 67.4571 26.3763 67.3418 26.3057C67.2268 26.2352 67.1086 26.1629 66.9834 26.0918C66.8582 26.0207 66.726 25.9501 66.584 25.8828C66.0884 25.6917 65.4331 25.4647 64.7334 25.2461C64.0341 25.0276 63.2902 24.818 62.6172 24.6611C62.3928 24.6088 62.1762 24.5623 61.9717 24.5234C61.7674 24.4846 61.5753 24.4528 61.3995 24.4307C61.0598 24.3878 60.6135 24.5487 60.2901 24.6709C58.9835 25.402 57.726 26.4655 57.2393 27.9551C56.835 29.1924 57.4845 31.3424 57.9317 32.5723C57.9519 32.6324 57.988 32.7344 58.0215 32.835L58.0967 33.0889L58.1582 33.1982C58.536 33.8141 59.9038 35.4435 59.9092 35.6367L59.8545 35.6738C58.8024 35.6552 57.4142 34.3975 56.5918 33.7988C56.1872 33.5044 55.7656 33.2389 55.3526 32.957C55.2387 32.9291 54.4574 32.4222 54.3106 32.3291C52.8191 31.3838 51.3871 30.3918 49.8829 29.4629C49.1671 29.1695 48.3136 28.3883 47.6377 27.9785C44.7767 26.2436 42.0646 24.004 38.5518 24.2305C37.4011 24.4008 35.992 24.6826 35.2393 25.6797C34.2515 26.9887 33.9014 28.7463 34.1104 30.3525C34.1934 30.9901 34.9022 33.1817 35.2129 33.7295C35.7302 34.3806 36.4 35.0428 36.9639 35.6924C36.3956 35.4853 34.303 34.4947 33.7002 34.0352L33.5997 33.9512C33.1199 33.7601 31.2746 32.6105 30.7657 32.2871C29.2961 31.3552 27.8446 30.3952 26.4122 29.4072L23.1582 27.1387C21.5125 26.0036 20.3978 25.2642 18.4649 24.6133C16.2302 23.8607 14.5235 23.8062 12.6045 25.3291C11.3075 26.8512 10.8149 27.2481 10.9747 29.4873C11.0528 30.5814 11.7111 32.7347 12.2266 33.8701L12.3282 34.083C12.7916 34.7966 13.0732 35.2557 13.4581 36C12.8962 35.6432 12.3229 35.2943 11.7774 34.9131C11.2405 34.5379 10.7285 34.1265 10.1866 33.7588C9.53441 33.3163 8.82996 32.9539 8.16508 32.5312C7.27191 31.9634 6.41386 31.3356 5.50004 30.8008C5.39077 30.7368 5.2428 30.6544 5.06743 30.5586C4.54131 30.2712 3.76458 29.8605 3.01958 29.4434C2.0261 28.8872 1.08876 28.3199 0.87602 28.0215C0.800595 27.9156 0.782732 27.8035 0.802778 27.6768C0.857539 27.333 1.17507 26.8924 1.45708 26.6924C1.19872 26.327 1.31926 25.8639 1.3643 25.4033C2.72954 25.5921 4.20511 26.3845 5.32329 27.1602C5.84045 27.5198 6.33242 27.9143 6.79692 28.3398C6.95651 28.4833 7.50302 29.0406 7.66704 29.0615C7.77556 28.6032 8.42566 27.2554 8.66997 26.8574C10.2649 24.2596 12.4135 22.6948 15.4668 22.4883C18.1339 22.3079 19.6979 23.0462 21.7071 24.1816L22.6006 24.6914L22.8975 24.7598C23.3081 24.852 23.9401 24.7399 24.4659 24.8623C26.1775 25.2608 27.2087 26.6736 28.4873 27.7637C28.8096 28.0384 29.2623 28.3675 29.5684 28.6592C29.8443 28.8836 30.5141 29.4034 30.7276 29.6211C30.7453 29.6229 30.8291 29.6159 30.8321 29.6064C30.8961 29.4035 30.9531 29.1979 31.0098 28.9922C31.095 28.6833 31.1802 28.3742 31.2891 28.0742C31.398 27.7743 31.5312 27.4836 31.712 27.2109L31.7715 27.083C33.2493 24.3763 35.8647 22.6308 38.9541 22.4414ZM11.836 8.63965C12.3194 8.69866 12.3353 9.42504 12.3614 9.79199C12.3867 9.96238 12.3846 10.1631 12.4854 10.2734C13.6762 10.5043 15.0323 10.726 15.7901 11.7979C16.1934 12.3684 15.946 12.8817 16.1036 13.1006C16.4915 12.9447 16.6555 12.8471 16.9932 13.1943C17.0598 13.5079 16.5007 13.559 16.2598 13.5869C15.534 13.671 14.7645 13.8267 14.0362 13.8584C13.6833 13.8723 13.0435 13.8798 12.7305 13.9717L12.6709 14.0029C12.5578 13.9487 12.4432 13.8966 12.3282 13.8467C12.4471 14.5412 12.6117 15.3572 12.6084 16.0537C12.4862 16.0846 12.392 16.1078 12.2969 16.126C12.2017 16.1442 12.1057 16.1577 11.9805 16.1719C11.9681 16.062 11.9455 15.9108 11.917 15.7393C11.8317 15.225 11.6892 14.5285 11.5723 14.2207H11.5713C11.5125 14.1833 11.3468 14.017 11.2852 13.958C10.586 13.789 10.1441 13.7724 9.43168 13.7412L7.23247 13.7666C6.90857 13.8066 6.71387 13.8117 6.38872 13.8135C5.99616 13.937 1.95826 13.8667 1.30375 13.8545C1.29281 13.0469 1.14858 11.894 1.05278 11.0791C1.8658 11.3631 10.2135 11.0809 11.5674 11.0908C11.5674 10.6069 11.4482 8.86475 11.836 8.63965ZM0.0664502 0C1.74597 0.236425 3.53432 0.119038 5.25395 0.0742188L5.98637 0.0605469C7.84215 0.04359 9.70379 0.0400088 11.5596 0.0380859C15.3467 0.0469606 19.1343 0.0821232 22.9209 0.143555C24.5473 0.171855 26.2275 0.269741 27.8448 0.262695L32.3584 0.235352C34.176 0.228107 36.4121 0.238018 38.2032 0.59082C40.3069 0.730989 43.0917 0.626107 45.2784 0.65918C47.7042 0.653066 50.1304 0.609368 52.5547 0.529297C54.1013 0.481076 55.7553 0.377759 57.294 0.391602V0.390625C57.4529 0.373374 57.6363 0.362381 57.8321 0.354492C58.4192 0.330837 59.1203 0.340633 59.625 0.335938L63.8956 0.298828C64.0868 0.296689 64.2911 0.291737 64.5049 0.285156C65.36 0.258844 66.3692 0.205557 67.3174 0.188477C68.0288 0.175662 68.7059 0.183647 69.2579 0.239258C69.2325 0.610238 69.2056 0.996541 69.1905 1.38281C69.1791 1.67275 69.1747 1.96269 69.1817 2.24609C69.184 2.34059 69.1882 2.43453 69.1934 2.52734C68.5066 2.53646 67.8367 2.54696 67.1504 2.52734C66.8232 2.52853 66.5987 2.52538 66.2735 2.49316C65.8859 2.47551 65.6724 2.359 65.3174 2.32715C65.0309 2.40483 62.1749 2.27427 61.5957 2.2666L52.4151 2.22168L24.6416 2.24609C24.1099 2.24878 23.5768 2.24865 23.043 2.24707C21.4415 2.24234 19.8334 2.22253 18.2373 2.21191C17.9481 2.21558 17.6882 2.36831 17.3985 2.38672C16.9009 2.41837 16.4237 2.39811 15.9278 2.35156C15.8192 2.34171 15.4943 2.42282 15.3497 2.43848C14.7165 2.50325 14.0822 2.55759 13.4473 2.60156C12.8455 2.64192 12.2257 2.67359 11.5967 2.69531C9.70976 2.7605 7.74119 2.74062 5.93461 2.63379C5.65838 2.61741 5.54789 2.54036 5.31352 2.52246L3.6934 2.38965C3.40051 2.36734 2.93478 2.37503 2.6768 2.2832C2.34135 2.38934 0.649664 2.13733 0.164106 2.36133C0.0518391 2.59114 0.0335711 3.35006 0.207075 3.56641L0.174849 3.59961L0.10356 3.54004C-0.039009 3.21088 -0.0142074 2.53055 0.0576611 2.18555L0.0820752 1.89258C0.0581472 1.30964 0.0845324 0.61858 0.0664502 0Z" fill="#717B88"/>
</svg>
