<svg width="70" height="36" viewBox="0 0 70 36" fill="none" xmlns="http://www.w3.org/2000/svg">
<path d="M12.1279 23.2783C13.8419 22.2998 16.605 22.2647 18.4873 22.7871C19.5238 23.0862 20.4254 23.5866 21.3994 23.9814C24.3117 25.1621 27.2747 26.4712 29.7559 28.4316C30.1881 28.7732 30.7686 29.2573 31.043 29.7393C31.3123 29.6066 31.2946 29.4995 31.333 29.2197C31.8806 27.0889 33.6356 24.3002 35.5469 23.1738C35.9955 22.9117 36.4834 22.7243 36.9922 22.6191C38.1314 22.3859 41.112 22.4116 42.209 22.7236C43.3597 23.051 45.0822 24.031 46.1807 24.6191C48.9793 26.1171 52.3023 27.5543 54.375 30.0273C54.8694 27.7295 56.4863 24.834 58.502 23.5166C60.3223 22.3268 61.9637 22.7749 63.9639 23.1406C64.959 23.3225 66.2678 23.8863 67.1914 24.333C67.7086 24.5835 68.2778 24.9818 68.8203 25.2207C68.8387 26.1161 69.0218 26.5634 67.9326 26.499C66.384 25.4189 65.0136 24.9542 63.2002 24.5254C62.0421 24.2516 61.1872 23.7906 60.0996 24.5859C56.7885 27.0076 57.1186 31.0767 59.1143 34.249C59.5002 34.8609 59.9687 35.3962 60.3428 36C58.7421 35.5687 57.4825 34.3615 56.168 33.4443C55.5127 32.9872 54.7266 32.6013 54.0361 32.1299L49.6934 29.1826C47.1779 27.4916 44.5925 25.7154 41.7441 24.6377C41.3477 24.4865 40.928 24.3642 40.5117 24.29C38.42 23.9178 35.2167 25.3482 34.5391 27.4277C34.1944 28.4864 34.5956 32.4088 35.1426 33.3701L35.2061 33.4707C35.5484 33.8388 36.9706 35.0891 36.9131 35.4814C36.4659 35.8477 34.5617 34.5255 34.0957 34.208L31.8662 32.7549C31.2171 32.3614 30.65 31.9932 30.0273 31.5566L23.6738 27.415C22.6485 26.8407 21.5523 26.1213 20.4902 25.6299C18.1777 24.56 13.8321 23.2163 12.2441 26.082C11.0696 28.2016 11.3862 30.9485 11.9346 33.207C11.9597 33.3104 12.0302 33.4772 12.042 33.5635C12.4813 34.487 13.1666 34.9006 13.6738 35.9307C12.4715 35.435 11.7157 34.7718 10.668 34.0312C10.317 33.7832 9.80293 33.4989 9.41992 33.2812V33.2822C9.13321 33.1623 8.18361 32.5606 7.85547 32.3516C6.40156 31.4253 4.98812 30.4977 3.49219 29.627C3.026 29.3556 1.88757 28.8924 1.55176 28.4648C1.27355 28.1099 1.44777 27.4658 1.54785 27.0479L1.55762 27.0117C1.6625 26.6169 1.61223 25.6308 2.47266 25.8506C3.02562 25.9922 3.7406 26.8134 4.22656 27.124C4.67316 27.4977 6.83132 28.7429 7.30469 29.1299L7.37598 29.1953C7.42446 29.2222 7.58957 29.3206 7.74805 29.4131C7.90643 29.5055 8.05814 29.592 8.08008 29.5957C8.80001 27.1192 9.72406 24.6509 12.1279 23.2783ZM35.0264 33.4219H35.0273H35.0264ZM69.502 0.0966797C69.5104 0.203908 69.508 0.33984 69.501 0.477539L69.4658 0.974609C69.4651 1.17632 69.4572 1.48166 69.4678 1.72754L69.4854 1.94727C69.5703 2.37887 69.5567 2.93358 69.5518 3.37402C69.1308 3.45857 68.0242 3.49218 67.582 3.47559C67.9738 3.42161 68.6411 3.46084 69.085 3.37988C69.1586 3.36646 69.2261 3.35012 69.2852 3.3291C69.3446 3.30794 69.3955 3.28183 69.4355 3.25098C69.6319 2.96555 69.4489 2.46356 69.416 2.08594C63.4698 1.91532 57.4804 2.09482 51.5312 2.07812C50.4879 2.08351 49.4446 2.08141 48.4014 2.0791C47.3582 2.07679 46.3147 2.07437 45.2715 2.08105C45.201 2.08151 45.1307 2.08458 45.0605 2.08887C44.5699 2.11885 44.0876 2.22959 43.6084 2.24707C39.7932 2.38584 36.0249 2.08437 32.2148 2.33984C30.8193 2.43336 29.1207 1.99187 27.6787 2.12109C26.4134 2.13709 24.6003 2.30769 23.3936 2.15625L19.5361 2.20996C19.1467 2.2126 18.3207 2.23935 17.958 2.21094C17.3178 2.29017 15.5395 2.27806 14.7891 2.2793C13.0563 2.28209 11.2706 2.35543 9.54688 2.36328C9.67965 5.05897 9.57982 7.61527 9.68848 10.3057C9.7165 10.9995 9.71829 12.5705 9.89551 13.2031C10.5981 14.5579 12.1166 13.6221 12.2314 13.7295C12.3102 14.2855 11.1834 16.0018 10.8652 16.4277C9.926 17.685 9.16549 17.8975 8.93652 19.0986C8.90131 19.2834 8.8789 19.4915 8.87012 19.7305C8.86572 19.85 8.86448 19.9774 8.86719 20.1133C8.87126 20.3178 8.933 21.3526 8.92676 21.5176C8.89341 21.4157 8.84395 21.2743 8.79688 21.1338L8.67969 20.7549C8.13414 19.2253 6.81284 17.8292 5.95996 16.4072C5.35108 15.392 4.93763 15.1026 4.46777 13.8896C5.25211 13.8685 6.03102 13.988 6.54883 13.3047C6.84097 10.1706 6.95068 6.02181 6.85742 2.84473C4.80504 2.49795 3.87281 2.49004 1.85742 2.39258C1.15511 2.45572 0.873158 2.62677 0.229492 2.89453C0.188713 2.02709 0.167516 0.951235 0 0.12207C1.65968 0.218415 3.74965 0.156186 5.45703 0.168945L14.7764 0.253906L41.3027 0.0712891C44.4388 0.0696495 47.5783 0.150032 50.7139 0.199219C52.6569 0.229669 54.6327 0.169056 56.5693 0.219727C58.7583 0.126128 60.997 0.326715 63.1914 0.267578C64.3544 0.236231 65.5057 0.0973706 66.665 0.130859C66.8305 0.135639 66.9962 0.143601 67.1621 0.15625C67.3718 0.172248 67.5775 0.224766 67.7861 0.241211C68.1503 0.252181 68.7379 0.106627 69.0732 0.169922L69.1299 0.234375L69.2686 0.243164C69.3167 0.166412 69.3649 0.089314 69.4121 0.0117188L69.4902 0L69.502 0.0966797ZM6.70898 2.50488V2.50391V2.50488ZM7.24512 2.16211C7.21846 2.17625 7.18994 2.18831 7.14844 2.2041C7.13869 2.25744 7.12958 2.30589 7.12207 2.35449L7.14941 2.2041C7.1907 2.18839 7.21855 2.17619 7.24512 2.16211ZM12.3955 2.20508V2.20605V2.20508Z" fill="#717B88"/>
</svg>
